<mxfile host="app.diagrams.net" agent="Mozilla/5.0 (X11; Linux x86_64) AppleWebKit/537.36 (KHTML, like Gecko) Chrome/131.0.0.0 Safari/537.36" version="25.0.3">
  <diagram name="Page-1" id="W-CykHG-l-JnHnWiYOWF">
    <mxGraphModel dx="1368" dy="788" grid="1" gridSize="10" guides="1" tooltips="1" connect="1" arrows="1" fold="1" page="0" pageScale="1" pageWidth="850" pageHeight="1100" math="0" shadow="0">
      <root>
        <mxCell id="0" />
        <mxCell id="1" parent="0" />
        <mxCell id="1oKnx7t8Xmumv9tewnxi-1" value="Bắt đầu" style="ellipse;whiteSpace=wrap;html=1;" vertex="1" parent="1">
          <mxGeometry x="350" y="160" width="90" height="70" as="geometry" />
        </mxCell>
        <mxCell id="1oKnx7t8Xmumv9tewnxi-3" value="Cấu hình WiFi" style="shape=process;whiteSpace=wrap;html=1;backgroundOutline=1;" vertex="1" parent="1">
          <mxGeometry x="335" y="260" width="120" height="60" as="geometry" />
        </mxCell>
        <mxCell id="1oKnx7t8Xmumv9tewnxi-4" value="" style="endArrow=classic;html=1;rounded=0;exitX=0.5;exitY=1;exitDx=0;exitDy=0;entryX=0.5;entryY=0;entryDx=0;entryDy=0;" edge="1" parent="1" source="1oKnx7t8Xmumv9tewnxi-1" target="1oKnx7t8Xmumv9tewnxi-3">
          <mxGeometry width="50" height="50" relative="1" as="geometry">
            <mxPoint x="400" y="430" as="sourcePoint" />
            <mxPoint x="450" y="380" as="targetPoint" />
          </mxGeometry>
        </mxCell>
        <mxCell id="1oKnx7t8Xmumv9tewnxi-5" value="Cấu hình Websocket" style="shape=process;whiteSpace=wrap;html=1;backgroundOutline=1;" vertex="1" parent="1">
          <mxGeometry x="335" y="360" width="120" height="60" as="geometry" />
        </mxCell>
        <mxCell id="1oKnx7t8Xmumv9tewnxi-6" value="" style="endArrow=classic;html=1;rounded=0;exitX=0.5;exitY=1;exitDx=0;exitDy=0;entryX=0.5;entryY=0;entryDx=0;entryDy=0;" edge="1" parent="1" source="1oKnx7t8Xmumv9tewnxi-3" target="1oKnx7t8Xmumv9tewnxi-5">
          <mxGeometry width="50" height="50" relative="1" as="geometry">
            <mxPoint x="400" y="430" as="sourcePoint" />
            <mxPoint x="450" y="380" as="targetPoint" />
          </mxGeometry>
        </mxCell>
        <mxCell id="1oKnx7t8Xmumv9tewnxi-8" value="" style="endArrow=classic;html=1;rounded=0;exitX=0.5;exitY=1;exitDx=0;exitDy=0;entryX=0.5;entryY=0;entryDx=0;entryDy=0;" edge="1" parent="1" source="1oKnx7t8Xmumv9tewnxi-5" target="1oKnx7t8Xmumv9tewnxi-9">
          <mxGeometry width="50" height="50" relative="1" as="geometry">
            <mxPoint x="405" y="330" as="sourcePoint" />
            <mxPoint x="395" y="460" as="targetPoint" />
          </mxGeometry>
        </mxCell>
        <mxCell id="1oKnx7t8Xmumv9tewnxi-9" value="Cấu hình I2S" style="shape=process;whiteSpace=wrap;html=1;backgroundOutline=1;" vertex="1" parent="1">
          <mxGeometry x="335" y="460" width="120" height="60" as="geometry" />
        </mxCell>
        <mxCell id="1oKnx7t8Xmumv9tewnxi-12" value="loop()" style="shape=process;whiteSpace=wrap;html=1;backgroundOutline=1;" vertex="1" parent="1">
          <mxGeometry x="335" y="560" width="120" height="60" as="geometry" />
        </mxCell>
        <mxCell id="1oKnx7t8Xmumv9tewnxi-13" value="" style="endArrow=classic;html=1;rounded=0;exitX=0.5;exitY=1;exitDx=0;exitDy=0;exitPerimeter=0;entryX=0.5;entryY=0;entryDx=0;entryDy=0;" edge="1" parent="1" source="1oKnx7t8Xmumv9tewnxi-9" target="1oKnx7t8Xmumv9tewnxi-12">
          <mxGeometry width="50" height="50" relative="1" as="geometry">
            <mxPoint x="400" y="450" as="sourcePoint" />
            <mxPoint x="450" y="400" as="targetPoint" />
          </mxGeometry>
        </mxCell>
        <mxCell id="1oKnx7t8Xmumv9tewnxi-15" value="" style="endArrow=classic;html=1;rounded=0;exitX=1;exitY=0.5;exitDx=0;exitDy=0;" edge="1" parent="1" source="1oKnx7t8Xmumv9tewnxi-12">
          <mxGeometry width="50" height="50" relative="1" as="geometry">
            <mxPoint x="400" y="450" as="sourcePoint" />
            <mxPoint x="395" y="530" as="targetPoint" />
            <Array as="points">
              <mxPoint x="530" y="590" />
              <mxPoint x="530" y="530" />
            </Array>
          </mxGeometry>
        </mxCell>
        <mxCell id="1oKnx7t8Xmumv9tewnxi-16" value="3.5.1. Lưu đồ giải thuật cho node gửi dữ liệu âm thanh" style="text;html=1;align=center;verticalAlign=middle;whiteSpace=wrap;rounded=0;" vertex="1" parent="1">
          <mxGeometry x="140" y="100" width="370" height="30" as="geometry" />
        </mxCell>
        <mxCell id="1oKnx7t8Xmumv9tewnxi-17" value="3.5.1.1.&amp;nbsp; Cấu hình Wifi" style="text;html=1;align=center;verticalAlign=middle;whiteSpace=wrap;rounded=0;" vertex="1" parent="1">
          <mxGeometry x="130" y="770" width="370" height="30" as="geometry" />
        </mxCell>
        <mxCell id="1oKnx7t8Xmumv9tewnxi-18" value="Bắt đầu" style="ellipse;whiteSpace=wrap;html=1;" vertex="1" parent="1">
          <mxGeometry x="350" y="810" width="90" height="70" as="geometry" />
        </mxCell>
        <mxCell id="1oKnx7t8Xmumv9tewnxi-19" value="WiFi.begin()" style="rounded=0;whiteSpace=wrap;html=1;" vertex="1" parent="1">
          <mxGeometry x="335" y="920" width="120" height="60" as="geometry" />
        </mxCell>
        <mxCell id="1oKnx7t8Xmumv9tewnxi-20" value="" style="endArrow=classic;html=1;rounded=0;exitX=0.5;exitY=1;exitDx=0;exitDy=0;entryX=0.5;entryY=0;entryDx=0;entryDy=0;" edge="1" parent="1" source="1oKnx7t8Xmumv9tewnxi-18" target="1oKnx7t8Xmumv9tewnxi-19">
          <mxGeometry width="50" height="50" relative="1" as="geometry">
            <mxPoint x="400" y="670" as="sourcePoint" />
            <mxPoint x="450" y="620" as="targetPoint" />
          </mxGeometry>
        </mxCell>
        <mxCell id="1oKnx7t8Xmumv9tewnxi-21" value="Kết nối&amp;nbsp;&lt;div&gt;thành công?&lt;/div&gt;" style="rhombus;whiteSpace=wrap;html=1;" vertex="1" parent="1">
          <mxGeometry x="337" y="1010" width="115" height="80" as="geometry" />
        </mxCell>
        <mxCell id="1oKnx7t8Xmumv9tewnxi-22" value="" style="endArrow=classic;html=1;rounded=0;exitX=0.5;exitY=1;exitDx=0;exitDy=0;" edge="1" parent="1" source="1oKnx7t8Xmumv9tewnxi-21">
          <mxGeometry width="50" height="50" relative="1" as="geometry">
            <mxPoint x="402" y="1150" as="sourcePoint" />
            <mxPoint x="395" y="1120" as="targetPoint" />
          </mxGeometry>
        </mxCell>
        <mxCell id="1oKnx7t8Xmumv9tewnxi-23" value="Đúng" style="text;html=1;align=center;verticalAlign=middle;whiteSpace=wrap;rounded=0;" vertex="1" parent="1">
          <mxGeometry x="392" y="1080" width="60" height="30" as="geometry" />
        </mxCell>
        <mxCell id="1oKnx7t8Xmumv9tewnxi-24" value="" style="endArrow=classic;html=1;rounded=0;exitX=1;exitY=0.5;exitDx=0;exitDy=0;" edge="1" parent="1" source="1oKnx7t8Xmumv9tewnxi-21">
          <mxGeometry width="50" height="50" relative="1" as="geometry">
            <mxPoint x="402" y="1150" as="sourcePoint" />
            <mxPoint x="522" y="1050" as="targetPoint" />
          </mxGeometry>
        </mxCell>
        <mxCell id="1oKnx7t8Xmumv9tewnxi-25" value="Sai" style="text;html=1;align=center;verticalAlign=middle;whiteSpace=wrap;rounded=0;" vertex="1" parent="1">
          <mxGeometry x="442" y="1020" width="60" height="30" as="geometry" />
        </mxCell>
        <mxCell id="1oKnx7t8Xmumv9tewnxi-26" value="chờ 1 giây" style="rounded=0;whiteSpace=wrap;html=1;" vertex="1" parent="1">
          <mxGeometry x="520" y="1020" width="80" height="60" as="geometry" />
        </mxCell>
        <mxCell id="1oKnx7t8Xmumv9tewnxi-27" value="" style="endArrow=classic;html=1;rounded=0;exitX=0.5;exitY=1;exitDx=0;exitDy=0;entryX=0.5;entryY=0;entryDx=0;entryDy=0;" edge="1" parent="1" source="1oKnx7t8Xmumv9tewnxi-19" target="1oKnx7t8Xmumv9tewnxi-21">
          <mxGeometry width="50" height="50" relative="1" as="geometry">
            <mxPoint x="400" y="1150" as="sourcePoint" />
            <mxPoint x="450" y="1100" as="targetPoint" />
          </mxGeometry>
        </mxCell>
        <mxCell id="1oKnx7t8Xmumv9tewnxi-28" value="" style="endArrow=classic;html=1;rounded=0;exitX=0.5;exitY=0;exitDx=0;exitDy=0;" edge="1" parent="1" source="1oKnx7t8Xmumv9tewnxi-26">
          <mxGeometry width="50" height="50" relative="1" as="geometry">
            <mxPoint x="400" y="1150" as="sourcePoint" />
            <mxPoint x="400" y="990" as="targetPoint" />
            <Array as="points">
              <mxPoint x="560" y="990" />
            </Array>
          </mxGeometry>
        </mxCell>
        <mxCell id="1oKnx7t8Xmumv9tewnxi-29" value="- Thông báo kết nối thành công&lt;div&gt;- In địa chỉ IP ra uart&lt;/div&gt;" style="rounded=0;whiteSpace=wrap;html=1;" vertex="1" parent="1">
          <mxGeometry x="334.5" y="1120" width="120" height="60" as="geometry" />
        </mxCell>
        <mxCell id="1oKnx7t8Xmumv9tewnxi-30" value="Kết thúc" style="ellipse;whiteSpace=wrap;html=1;" vertex="1" parent="1">
          <mxGeometry x="349.5" y="1210" width="90" height="70" as="geometry" />
        </mxCell>
        <mxCell id="1oKnx7t8Xmumv9tewnxi-31" value="" style="endArrow=classic;html=1;rounded=0;exitX=0.5;exitY=1;exitDx=0;exitDy=0;entryX=0.5;entryY=0;entryDx=0;entryDy=0;" edge="1" parent="1" source="1oKnx7t8Xmumv9tewnxi-29" target="1oKnx7t8Xmumv9tewnxi-30">
          <mxGeometry width="50" height="50" relative="1" as="geometry">
            <mxPoint x="400" y="1150" as="sourcePoint" />
            <mxPoint x="450" y="1100" as="targetPoint" />
          </mxGeometry>
        </mxCell>
        <mxCell id="1oKnx7t8Xmumv9tewnxi-32" value="3.5.1.2.&amp;nbsp; Cấu hình websocket&amp;nbsp;" style="text;html=1;align=center;verticalAlign=middle;whiteSpace=wrap;rounded=0;" vertex="1" parent="1">
          <mxGeometry x="140" y="1310" width="370" height="30" as="geometry" />
        </mxCell>
        <mxCell id="1oKnx7t8Xmumv9tewnxi-33" value="Bắt đầu" style="ellipse;whiteSpace=wrap;html=1;" vertex="1" parent="1">
          <mxGeometry x="350" y="1350" width="90" height="70" as="geometry" />
        </mxCell>
        <mxCell id="1oKnx7t8Xmumv9tewnxi-34" value="webSocket.begin()" style="rounded=0;whiteSpace=wrap;html=1;" vertex="1" parent="1">
          <mxGeometry x="335" y="1450" width="120" height="60" as="geometry" />
        </mxCell>
        <mxCell id="1oKnx7t8Xmumv9tewnxi-35" value="Kết thúc" style="ellipse;whiteSpace=wrap;html=1;" vertex="1" parent="1">
          <mxGeometry x="349.5" y="1550" width="90" height="70" as="geometry" />
        </mxCell>
        <mxCell id="1oKnx7t8Xmumv9tewnxi-36" value="" style="endArrow=classic;html=1;rounded=0;exitX=0.5;exitY=1;exitDx=0;exitDy=0;entryX=0.5;entryY=0;entryDx=0;entryDy=0;" edge="1" parent="1" source="1oKnx7t8Xmumv9tewnxi-33" target="1oKnx7t8Xmumv9tewnxi-34">
          <mxGeometry width="50" height="50" relative="1" as="geometry">
            <mxPoint x="400" y="1320" as="sourcePoint" />
            <mxPoint x="450" y="1270" as="targetPoint" />
          </mxGeometry>
        </mxCell>
        <mxCell id="1oKnx7t8Xmumv9tewnxi-37" value="" style="endArrow=classic;html=1;rounded=0;exitX=0.5;exitY=1;exitDx=0;exitDy=0;entryX=0.5;entryY=0;entryDx=0;entryDy=0;" edge="1" parent="1" source="1oKnx7t8Xmumv9tewnxi-34" target="1oKnx7t8Xmumv9tewnxi-35">
          <mxGeometry width="50" height="50" relative="1" as="geometry">
            <mxPoint x="400" y="1320" as="sourcePoint" />
            <mxPoint x="450" y="1270" as="targetPoint" />
          </mxGeometry>
        </mxCell>
        <mxCell id="1oKnx7t8Xmumv9tewnxi-38" value="3.5.1.3.&amp;nbsp; Cấu hình i2s&amp;nbsp;" style="text;html=1;align=center;verticalAlign=middle;whiteSpace=wrap;rounded=0;" vertex="1" parent="1">
          <mxGeometry x="140" y="1670" width="370" height="30" as="geometry" />
        </mxCell>
        <mxCell id="1oKnx7t8Xmumv9tewnxi-39" value="Bắt đầu" style="ellipse;whiteSpace=wrap;html=1;" vertex="1" parent="1">
          <mxGeometry x="349.5" y="1720" width="90" height="70" as="geometry" />
        </mxCell>
        <mxCell id="1oKnx7t8Xmumv9tewnxi-40" value="Chế độ i2s:&amp;nbsp;&lt;br&gt;&lt;div&gt;- mode&lt;/div&gt;&lt;div&gt;- sample_rate&lt;br&gt;- bits_per_sample&lt;/div&gt;&lt;div&gt;- channel_format&lt;/div&gt;&lt;div&gt;- comunication_format&lt;/div&gt;&lt;div&gt;...&lt;/div&gt;" style="rounded=0;whiteSpace=wrap;html=1;align=left;" vertex="1" parent="1">
          <mxGeometry x="334.5" y="1830" width="120" height="130" as="geometry" />
        </mxCell>
        <mxCell id="1oKnx7t8Xmumv9tewnxi-41" value="" style="endArrow=classic;html=1;rounded=0;exitX=0.5;exitY=1;exitDx=0;exitDy=0;entryX=0.5;entryY=0;entryDx=0;entryDy=0;" edge="1" parent="1" source="1oKnx7t8Xmumv9tewnxi-39" target="1oKnx7t8Xmumv9tewnxi-40">
          <mxGeometry width="50" height="50" relative="1" as="geometry">
            <mxPoint x="400" y="1650" as="sourcePoint" />
            <mxPoint x="450" y="1600" as="targetPoint" />
          </mxGeometry>
        </mxCell>
        <mxCell id="1oKnx7t8Xmumv9tewnxi-43" value="Chân i2s:&lt;div&gt;- bck&lt;/div&gt;&lt;div&gt;- ws&lt;/div&gt;&lt;div&gt;- data_out&lt;/div&gt;&lt;div&gt;- data_in&lt;/div&gt;" style="rounded=0;whiteSpace=wrap;html=1;align=left;" vertex="1" parent="1">
          <mxGeometry x="334.5" y="2000" width="120" height="90" as="geometry" />
        </mxCell>
        <mxCell id="1oKnx7t8Xmumv9tewnxi-44" value="" style="endArrow=classic;html=1;rounded=0;exitX=0.5;exitY=1;exitDx=0;exitDy=0;entryX=0.5;entryY=0;entryDx=0;entryDy=0;" edge="1" parent="1" source="1oKnx7t8Xmumv9tewnxi-40" target="1oKnx7t8Xmumv9tewnxi-43">
          <mxGeometry width="50" height="50" relative="1" as="geometry">
            <mxPoint x="400" y="2000" as="sourcePoint" />
            <mxPoint x="450" y="1950" as="targetPoint" />
          </mxGeometry>
        </mxCell>
        <mxCell id="1oKnx7t8Xmumv9tewnxi-45" value="Kết thúc" style="ellipse;whiteSpace=wrap;html=1;" vertex="1" parent="1">
          <mxGeometry x="349.5" y="2130" width="90" height="70" as="geometry" />
        </mxCell>
        <mxCell id="1oKnx7t8Xmumv9tewnxi-46" value="" style="endArrow=classic;html=1;rounded=0;exitX=0.5;exitY=1;exitDx=0;exitDy=0;entryX=0.5;entryY=0;entryDx=0;entryDy=0;" edge="1" parent="1" source="1oKnx7t8Xmumv9tewnxi-43" target="1oKnx7t8Xmumv9tewnxi-45">
          <mxGeometry width="50" height="50" relative="1" as="geometry">
            <mxPoint x="400" y="2000" as="sourcePoint" />
            <mxPoint x="450" y="1950" as="targetPoint" />
          </mxGeometry>
        </mxCell>
        <mxCell id="1oKnx7t8Xmumv9tewnxi-47" value="3.5.1.4.&amp;nbsp; Vòng lặp loop()" style="text;html=1;align=center;verticalAlign=middle;whiteSpace=wrap;rounded=0;" vertex="1" parent="1">
          <mxGeometry x="120" y="2240" width="370" height="30" as="geometry" />
        </mxCell>
        <mxCell id="1oKnx7t8Xmumv9tewnxi-48" value="Bắt đầu" style="ellipse;whiteSpace=wrap;html=1;" vertex="1" parent="1">
          <mxGeometry x="349.5" y="2280" width="90" height="70" as="geometry" />
        </mxCell>
        <mxCell id="1oKnx7t8Xmumv9tewnxi-50" value="Đọc giá trị I2S" style="rounded=0;whiteSpace=wrap;html=1;" vertex="1" parent="1">
          <mxGeometry x="335" y="2380" width="120" height="60" as="geometry" />
        </mxCell>
        <mxCell id="1oKnx7t8Xmumv9tewnxi-51" value="" style="endArrow=classic;html=1;rounded=0;exitX=0.5;exitY=1;exitDx=0;exitDy=0;entryX=0.5;entryY=0;entryDx=0;entryDy=0;" edge="1" parent="1" source="1oKnx7t8Xmumv9tewnxi-48" target="1oKnx7t8Xmumv9tewnxi-50">
          <mxGeometry width="50" height="50" relative="1" as="geometry">
            <mxPoint x="400" y="2320" as="sourcePoint" />
            <mxPoint x="450" y="2270" as="targetPoint" />
          </mxGeometry>
        </mxCell>
        <mxCell id="1oKnx7t8Xmumv9tewnxi-52" value="Chế độ debug&lt;div&gt;&amp;nbsp;được bật?&amp;nbsp;&lt;/div&gt;" style="rhombus;whiteSpace=wrap;html=1;" vertex="1" parent="1">
          <mxGeometry x="331.75" y="2480" width="125.5" height="80" as="geometry" />
        </mxCell>
        <mxCell id="1oKnx7t8Xmumv9tewnxi-53" value="" style="endArrow=classic;html=1;rounded=0;exitX=0.5;exitY=1;exitDx=0;exitDy=0;entryX=0.5;entryY=0;entryDx=0;entryDy=0;" edge="1" parent="1" source="1oKnx7t8Xmumv9tewnxi-50" target="1oKnx7t8Xmumv9tewnxi-52">
          <mxGeometry width="50" height="50" relative="1" as="geometry">
            <mxPoint x="400" y="2320" as="sourcePoint" />
            <mxPoint x="450" y="2270" as="targetPoint" />
          </mxGeometry>
        </mxCell>
        <mxCell id="1oKnx7t8Xmumv9tewnxi-54" value="" style="endArrow=classic;html=1;rounded=0;exitX=0.5;exitY=1;exitDx=0;exitDy=0;" edge="1" parent="1" source="1oKnx7t8Xmumv9tewnxi-52">
          <mxGeometry width="50" height="50" relative="1" as="geometry">
            <mxPoint x="400" y="2320" as="sourcePoint" />
            <mxPoint x="395" y="2590" as="targetPoint" />
          </mxGeometry>
        </mxCell>
        <mxCell id="1oKnx7t8Xmumv9tewnxi-55" value="Gửi dữ liệu qua Websocket" style="rounded=0;whiteSpace=wrap;html=1;" vertex="1" parent="1">
          <mxGeometry x="335" y="2590" width="120" height="60" as="geometry" />
        </mxCell>
        <mxCell id="1oKnx7t8Xmumv9tewnxi-56" value="Kết thúc" style="ellipse;whiteSpace=wrap;html=1;" vertex="1" parent="1">
          <mxGeometry x="350" y="2690" width="90" height="70" as="geometry" />
        </mxCell>
        <mxCell id="1oKnx7t8Xmumv9tewnxi-57" value="" style="endArrow=classic;html=1;rounded=0;exitX=0.5;exitY=1;exitDx=0;exitDy=0;entryX=0.5;entryY=0;entryDx=0;entryDy=0;" edge="1" parent="1" source="1oKnx7t8Xmumv9tewnxi-55" target="1oKnx7t8Xmumv9tewnxi-56">
          <mxGeometry width="50" height="50" relative="1" as="geometry">
            <mxPoint x="400" y="2560" as="sourcePoint" />
            <mxPoint x="450" y="2510" as="targetPoint" />
          </mxGeometry>
        </mxCell>
        <mxCell id="1oKnx7t8Xmumv9tewnxi-58" value="" style="endArrow=classic;html=1;rounded=0;exitX=1;exitY=0.5;exitDx=0;exitDy=0;" edge="1" parent="1" source="1oKnx7t8Xmumv9tewnxi-52">
          <mxGeometry width="50" height="50" relative="1" as="geometry">
            <mxPoint x="400" y="2560" as="sourcePoint" />
            <mxPoint x="530" y="2520" as="targetPoint" />
          </mxGeometry>
        </mxCell>
        <mxCell id="1oKnx7t8Xmumv9tewnxi-59" value="Gửi giá trị đọc được từ I2S lên uart" style="rounded=0;whiteSpace=wrap;html=1;" vertex="1" parent="1">
          <mxGeometry x="530" y="2490" width="120" height="60" as="geometry" />
        </mxCell>
        <mxCell id="1oKnx7t8Xmumv9tewnxi-60" value="" style="endArrow=classic;html=1;rounded=0;exitX=0.5;exitY=1;exitDx=0;exitDy=0;" edge="1" parent="1" source="1oKnx7t8Xmumv9tewnxi-59">
          <mxGeometry width="50" height="50" relative="1" as="geometry">
            <mxPoint x="560" y="2640" as="sourcePoint" />
            <mxPoint x="400" y="2570" as="targetPoint" />
            <Array as="points">
              <mxPoint x="590" y="2570" />
            </Array>
          </mxGeometry>
        </mxCell>
        <mxCell id="1oKnx7t8Xmumv9tewnxi-61" value="Sai" style="text;html=1;align=center;verticalAlign=middle;whiteSpace=wrap;rounded=0;" vertex="1" parent="1">
          <mxGeometry x="337" y="2560" width="60" height="30" as="geometry" />
        </mxCell>
        <mxCell id="1oKnx7t8Xmumv9tewnxi-62" value="Đúng" style="text;html=1;align=center;verticalAlign=middle;whiteSpace=wrap;rounded=0;" vertex="1" parent="1">
          <mxGeometry x="452" y="2490" width="60" height="30" as="geometry" />
        </mxCell>
        <mxCell id="1oKnx7t8Xmumv9tewnxi-63" value="&lt;p style=&quot;line-height: 1.15px; margin-bottom: 0in; background: transparent; font-size: medium;&quot; align=&quot;justify&quot;&gt;&lt;font face=&quot;Time new roman&quot;&gt;&lt;font style=&quot;font-size: 14pt;&quot;&gt;3.5.2. Lưu đồ giải thuật server xử lí dữ liệu&lt;/font&gt;&lt;/font&gt;&lt;/p&gt;" style="text;html=1;align=center;verticalAlign=middle;whiteSpace=wrap;rounded=0;" vertex="1" parent="1">
          <mxGeometry x="880" y="100" width="350" height="30" as="geometry" />
        </mxCell>
        <mxCell id="1oKnx7t8Xmumv9tewnxi-64" value="Bắt đầu" style="ellipse;whiteSpace=wrap;html=1;" vertex="1" parent="1">
          <mxGeometry x="1070" y="160" width="90" height="70" as="geometry" />
        </mxCell>
        <mxCell id="1oKnx7t8Xmumv9tewnxi-65" value="Khởi tạo websocket" style="rounded=0;whiteSpace=wrap;html=1;" vertex="1" parent="1">
          <mxGeometry x="1055" y="270" width="120" height="60" as="geometry" />
        </mxCell>
        <mxCell id="1oKnx7t8Xmumv9tewnxi-66" value="Thành công?" style="rhombus;whiteSpace=wrap;html=1;" vertex="1" parent="1">
          <mxGeometry x="1040" y="360" width="150" height="80" as="geometry" />
        </mxCell>
        <mxCell id="1oKnx7t8Xmumv9tewnxi-67" value="" style="endArrow=classic;html=1;rounded=0;entryX=0.5;entryY=0;entryDx=0;entryDy=0;exitX=0.5;exitY=1;exitDx=0;exitDy=0;" edge="1" parent="1" source="1oKnx7t8Xmumv9tewnxi-65" target="1oKnx7t8Xmumv9tewnxi-66">
          <mxGeometry width="50" height="50" relative="1" as="geometry">
            <mxPoint x="890" y="360" as="sourcePoint" />
            <mxPoint x="940" y="310" as="targetPoint" />
          </mxGeometry>
        </mxCell>
        <mxCell id="1oKnx7t8Xmumv9tewnxi-68" value="" style="endArrow=classic;html=1;rounded=0;entryX=0.5;entryY=0;entryDx=0;entryDy=0;exitX=0.5;exitY=1;exitDx=0;exitDy=0;" edge="1" parent="1" source="1oKnx7t8Xmumv9tewnxi-64" target="1oKnx7t8Xmumv9tewnxi-65">
          <mxGeometry width="50" height="50" relative="1" as="geometry">
            <mxPoint x="1125" y="340" as="sourcePoint" />
            <mxPoint x="1125" y="380" as="targetPoint" />
          </mxGeometry>
        </mxCell>
        <mxCell id="1oKnx7t8Xmumv9tewnxi-69" value="" style="endArrow=classic;html=1;rounded=0;exitX=0.5;exitY=1;exitDx=0;exitDy=0;" edge="1" parent="1" source="1oKnx7t8Xmumv9tewnxi-66">
          <mxGeometry width="50" height="50" relative="1" as="geometry">
            <mxPoint x="890" y="350" as="sourcePoint" />
            <mxPoint x="1115" y="480" as="targetPoint" />
          </mxGeometry>
        </mxCell>
        <mxCell id="1oKnx7t8Xmumv9tewnxi-70" value="" style="endArrow=classic;html=1;rounded=0;exitX=1;exitY=0.5;exitDx=0;exitDy=0;" edge="1" parent="1" source="1oKnx7t8Xmumv9tewnxi-66" target="1oKnx7t8Xmumv9tewnxi-71">
          <mxGeometry width="50" height="50" relative="1" as="geometry">
            <mxPoint x="890" y="350" as="sourcePoint" />
            <mxPoint x="940" y="300" as="targetPoint" />
          </mxGeometry>
        </mxCell>
        <mxCell id="1oKnx7t8Xmumv9tewnxi-71" value="In thông báo lỗi và đợi 5 giây" style="rounded=0;whiteSpace=wrap;html=1;" vertex="1" parent="1">
          <mxGeometry x="1240" y="370" width="120" height="60" as="geometry" />
        </mxCell>
        <mxCell id="1oKnx7t8Xmumv9tewnxi-72" value="Sai" style="text;html=1;align=center;verticalAlign=middle;whiteSpace=wrap;rounded=0;" vertex="1" parent="1">
          <mxGeometry x="1175" y="370" width="60" height="30" as="geometry" />
        </mxCell>
        <mxCell id="1oKnx7t8Xmumv9tewnxi-73" value="" style="endArrow=classic;html=1;rounded=0;exitX=0.5;exitY=0;exitDx=0;exitDy=0;entryX=1;entryY=0.5;entryDx=0;entryDy=0;" edge="1" parent="1" source="1oKnx7t8Xmumv9tewnxi-71" target="1oKnx7t8Xmumv9tewnxi-65">
          <mxGeometry width="50" height="50" relative="1" as="geometry">
            <mxPoint x="890" y="360" as="sourcePoint" />
            <mxPoint x="940" y="310" as="targetPoint" />
            <Array as="points">
              <mxPoint x="1300" y="300" />
            </Array>
          </mxGeometry>
        </mxCell>
        <mxCell id="1oKnx7t8Xmumv9tewnxi-74" value="Nút &quot;Bắt đầu&quot;&amp;nbsp;&lt;div&gt;được nhân ?&lt;/div&gt;" style="rhombus;whiteSpace=wrap;html=1;" vertex="1" parent="1">
          <mxGeometry x="1043.5" y="690" width="145" height="80" as="geometry" />
        </mxCell>
        <mxCell id="1oKnx7t8Xmumv9tewnxi-75" value="Đúng" style="text;html=1;align=center;verticalAlign=middle;whiteSpace=wrap;rounded=0;" vertex="1" parent="1">
          <mxGeometry x="1115" y="440" width="60" height="30" as="geometry" />
        </mxCell>
        <mxCell id="1oKnx7t8Xmumv9tewnxi-76" value="" style="endArrow=classic;html=1;rounded=0;exitX=0.5;exitY=1;exitDx=0;exitDy=0;" edge="1" parent="1" source="1oKnx7t8Xmumv9tewnxi-74">
          <mxGeometry width="50" height="50" relative="1" as="geometry">
            <mxPoint x="891" y="550" as="sourcePoint" />
            <mxPoint x="1116" y="810" as="targetPoint" />
          </mxGeometry>
        </mxCell>
        <mxCell id="1oKnx7t8Xmumv9tewnxi-77" value="Đúng" style="text;html=1;align=center;verticalAlign=middle;whiteSpace=wrap;rounded=0;" vertex="1" parent="1">
          <mxGeometry x="1116" y="770" width="60" height="30" as="geometry" />
        </mxCell>
        <mxCell id="1oKnx7t8Xmumv9tewnxi-78" value="Sai" style="text;html=1;align=center;verticalAlign=middle;whiteSpace=wrap;rounded=0;" vertex="1" parent="1">
          <mxGeometry x="1181" y="690" width="60" height="30" as="geometry" />
        </mxCell>
        <mxCell id="1oKnx7t8Xmumv9tewnxi-79" value="" style="endArrow=classic;html=1;rounded=0;exitX=1;exitY=0.5;exitDx=0;exitDy=0;" edge="1" parent="1" source="1oKnx7t8Xmumv9tewnxi-74">
          <mxGeometry width="50" height="50" relative="1" as="geometry">
            <mxPoint x="891" y="790" as="sourcePoint" />
            <mxPoint x="1441" y="730" as="targetPoint" />
          </mxGeometry>
        </mxCell>
        <mxCell id="1oKnx7t8Xmumv9tewnxi-82" value="Bắt đầu lưu 2 giây dữ liệu tiếp theo vào file" style="rounded=0;whiteSpace=wrap;html=1;" vertex="1" parent="1">
          <mxGeometry x="1056" y="810" width="120" height="60" as="geometry" />
        </mxCell>
        <mxCell id="1oKnx7t8Xmumv9tewnxi-83" value="" style="endArrow=classic;html=1;rounded=0;exitX=0.5;exitY=1;exitDx=0;exitDy=0;" edge="1" parent="1" source="1oKnx7t8Xmumv9tewnxi-82">
          <mxGeometry width="50" height="50" relative="1" as="geometry">
            <mxPoint x="891" y="790" as="sourcePoint" />
            <mxPoint x="1116" y="910" as="targetPoint" />
          </mxGeometry>
        </mxCell>
        <mxCell id="1oKnx7t8Xmumv9tewnxi-84" value="Tiền xử lí" style="shape=process;whiteSpace=wrap;html=1;backgroundOutline=1;" vertex="1" parent="1">
          <mxGeometry x="1056" y="910" width="120" height="60" as="geometry" />
        </mxCell>
        <mxCell id="1oKnx7t8Xmumv9tewnxi-85" value="" style="endArrow=classic;html=1;rounded=0;exitX=0.5;exitY=1;exitDx=0;exitDy=0;" edge="1" parent="1" source="1oKnx7t8Xmumv9tewnxi-84">
          <mxGeometry width="50" height="50" relative="1" as="geometry">
            <mxPoint x="891" y="790" as="sourcePoint" />
            <mxPoint x="1116" y="1000" as="targetPoint" />
          </mxGeometry>
        </mxCell>
        <mxCell id="1oKnx7t8Xmumv9tewnxi-86" value="Đưa qua model đã huấn luyện" style="rounded=0;whiteSpace=wrap;html=1;" vertex="1" parent="1">
          <mxGeometry x="1056" y="1000" width="120" height="60" as="geometry" />
        </mxCell>
        <mxCell id="1oKnx7t8Xmumv9tewnxi-87" value="" style="endArrow=classic;html=1;rounded=0;exitX=0.5;exitY=1;exitDx=0;exitDy=0;" edge="1" parent="1" source="1oKnx7t8Xmumv9tewnxi-86">
          <mxGeometry width="50" height="50" relative="1" as="geometry">
            <mxPoint x="891" y="900" as="sourcePoint" />
            <mxPoint x="1116" y="1090" as="targetPoint" />
          </mxGeometry>
        </mxCell>
        <mxCell id="1oKnx7t8Xmumv9tewnxi-88" value="Gửi output lên MQTT" style="rounded=0;whiteSpace=wrap;html=1;" vertex="1" parent="1">
          <mxGeometry x="1056" y="1090" width="120" height="60" as="geometry" />
        </mxCell>
        <mxCell id="1oKnx7t8Xmumv9tewnxi-89" value="" style="endArrow=classic;html=1;rounded=0;exitX=1;exitY=0.5;exitDx=0;exitDy=0;" edge="1" parent="1" source="1oKnx7t8Xmumv9tewnxi-88">
          <mxGeometry width="50" height="50" relative="1" as="geometry">
            <mxPoint x="891" y="900" as="sourcePoint" />
            <mxPoint x="1121" y="660" as="targetPoint" />
            <Array as="points">
              <mxPoint x="1441" y="1120" />
              <mxPoint x="1441" y="660" />
            </Array>
          </mxGeometry>
        </mxCell>
        <mxCell id="1oKnx7t8Xmumv9tewnxi-91" value="Khởi tạo MQTT" style="rounded=0;whiteSpace=wrap;html=1;" vertex="1" parent="1">
          <mxGeometry x="1055" y="480" width="120" height="60" as="geometry" />
        </mxCell>
        <mxCell id="1oKnx7t8Xmumv9tewnxi-111" value="" style="edgeStyle=orthogonalEdgeStyle;rounded=0;orthogonalLoop=1;jettySize=auto;html=1;" edge="1" parent="1" source="1oKnx7t8Xmumv9tewnxi-92" target="1oKnx7t8Xmumv9tewnxi-109">
          <mxGeometry relative="1" as="geometry" />
        </mxCell>
        <mxCell id="1oKnx7t8Xmumv9tewnxi-92" value="Thành công?" style="rhombus;whiteSpace=wrap;html=1;" vertex="1" parent="1">
          <mxGeometry x="1040.5" y="570" width="150" height="80" as="geometry" />
        </mxCell>
        <mxCell id="1oKnx7t8Xmumv9tewnxi-93" value="" style="endArrow=classic;html=1;rounded=0;exitX=0.5;exitY=1;exitDx=0;exitDy=0;entryX=0.5;entryY=0;entryDx=0;entryDy=0;" edge="1" parent="1" source="1oKnx7t8Xmumv9tewnxi-91" target="1oKnx7t8Xmumv9tewnxi-92">
          <mxGeometry width="50" height="50" relative="1" as="geometry">
            <mxPoint x="890" y="600" as="sourcePoint" />
            <mxPoint x="940" y="550" as="targetPoint" />
          </mxGeometry>
        </mxCell>
        <mxCell id="1oKnx7t8Xmumv9tewnxi-94" value="" style="endArrow=classic;html=1;rounded=0;exitX=0.5;exitY=1;exitDx=0;exitDy=0;entryX=0.5;entryY=0;entryDx=0;entryDy=0;" edge="1" parent="1" source="1oKnx7t8Xmumv9tewnxi-92" target="1oKnx7t8Xmumv9tewnxi-74">
          <mxGeometry width="50" height="50" relative="1" as="geometry">
            <mxPoint x="1104.9499999999998" y="651.04" as="sourcePoint" />
            <mxPoint x="935" y="550" as="targetPoint" />
          </mxGeometry>
        </mxCell>
        <mxCell id="1oKnx7t8Xmumv9tewnxi-95" value="&lt;p style=&quot;line-height: 1.15px; margin-bottom: 0in; background: transparent; font-size: medium;&quot; align=&quot;justify&quot;&gt;&lt;font face=&quot;Time new roman&quot;&gt;&lt;font style=&quot;font-size: 14pt;&quot;&gt;3.5.2.1. Lưu đồ quá trình tiền xử lí dữ liệu âm thanh&lt;/font&gt;&lt;/font&gt;&lt;/p&gt;" style="text;html=1;align=center;verticalAlign=middle;whiteSpace=wrap;rounded=0;" vertex="1" parent="1">
          <mxGeometry x="870" y="1210" width="440" height="30" as="geometry" />
        </mxCell>
        <mxCell id="1oKnx7t8Xmumv9tewnxi-96" value="Ở đây websocket và MQTT được khởi tạo trong một luồng riêng so với giao diện, do đó trong quá trình hai luồng này được khởi tạo thì giao diện vẫn có thể hoạt động bình thường, tuy nhiên, khi một trong hai quá trình khởi tạo không thành công sẽ dẫn đến app hoạt động không như mong muốn" style="text;html=1;align=center;verticalAlign=middle;whiteSpace=wrap;rounded=0;" vertex="1" parent="1">
          <mxGeometry x="870" y="1170" width="610" height="30" as="geometry" />
        </mxCell>
        <mxCell id="1oKnx7t8Xmumv9tewnxi-98" value="Bắt đầu" style="ellipse;whiteSpace=wrap;html=1;" vertex="1" parent="1">
          <mxGeometry x="1071" y="1270" width="90" height="70" as="geometry" />
        </mxCell>
        <mxCell id="1oKnx7t8Xmumv9tewnxi-99" value="" style="endArrow=classic;html=1;rounded=0;exitX=0.5;exitY=1;exitDx=0;exitDy=0;" edge="1" parent="1" source="1oKnx7t8Xmumv9tewnxi-98">
          <mxGeometry width="50" height="50" relative="1" as="geometry">
            <mxPoint x="850" y="1210" as="sourcePoint" />
            <mxPoint x="1116" y="1370" as="targetPoint" />
          </mxGeometry>
        </mxCell>
        <mxCell id="1oKnx7t8Xmumv9tewnxi-100" value="giảm nhiễu với thư viện noise reduce" style="rounded=0;whiteSpace=wrap;html=1;" vertex="1" parent="1">
          <mxGeometry x="1055" y="1370" width="120" height="60" as="geometry" />
        </mxCell>
        <mxCell id="1oKnx7t8Xmumv9tewnxi-101" value="Cắt khoảng lặng với thư viện librosa" style="rounded=0;whiteSpace=wrap;html=1;" vertex="1" parent="1">
          <mxGeometry x="1055" y="1460" width="120" height="60" as="geometry" />
        </mxCell>
        <mxCell id="1oKnx7t8Xmumv9tewnxi-102" value="" style="endArrow=classic;html=1;rounded=0;exitX=0.5;exitY=1;exitDx=0;exitDy=0;entryX=0.5;entryY=0;entryDx=0;entryDy=0;" edge="1" parent="1" source="1oKnx7t8Xmumv9tewnxi-100" target="1oKnx7t8Xmumv9tewnxi-101">
          <mxGeometry width="50" height="50" relative="1" as="geometry">
            <mxPoint x="850" y="1210" as="sourcePoint" />
            <mxPoint x="900" y="1160" as="targetPoint" />
          </mxGeometry>
        </mxCell>
        <mxCell id="1oKnx7t8Xmumv9tewnxi-103" value="Điều chỉnh kích thước dữ liệu với numpy" style="rounded=0;whiteSpace=wrap;html=1;" vertex="1" parent="1">
          <mxGeometry x="1055" y="1554" width="120" height="60" as="geometry" />
        </mxCell>
        <mxCell id="1oKnx7t8Xmumv9tewnxi-104" value="" style="endArrow=classic;html=1;rounded=0;exitX=0.5;exitY=1;exitDx=0;exitDy=0;entryX=0.5;entryY=0;entryDx=0;entryDy=0;" edge="1" parent="1" source="1oKnx7t8Xmumv9tewnxi-101" target="1oKnx7t8Xmumv9tewnxi-103">
          <mxGeometry width="50" height="50" relative="1" as="geometry">
            <mxPoint x="850" y="1450" as="sourcePoint" />
            <mxPoint x="900" y="1400" as="targetPoint" />
          </mxGeometry>
        </mxCell>
        <mxCell id="1oKnx7t8Xmumv9tewnxi-105" value="Trích xuất MFCC với thư viện librosa" style="rounded=0;whiteSpace=wrap;html=1;" vertex="1" parent="1">
          <mxGeometry x="1055" y="1650" width="120" height="60" as="geometry" />
        </mxCell>
        <mxCell id="1oKnx7t8Xmumv9tewnxi-106" value="" style="endArrow=classic;html=1;rounded=0;exitX=0.5;exitY=1;exitDx=0;exitDy=0;" edge="1" parent="1" source="1oKnx7t8Xmumv9tewnxi-103" target="1oKnx7t8Xmumv9tewnxi-105">
          <mxGeometry width="50" height="50" relative="1" as="geometry">
            <mxPoint x="850" y="1450" as="sourcePoint" />
            <mxPoint x="900" y="1400" as="targetPoint" />
          </mxGeometry>
        </mxCell>
        <mxCell id="1oKnx7t8Xmumv9tewnxi-107" value="Kết thúc" style="ellipse;whiteSpace=wrap;html=1;" vertex="1" parent="1">
          <mxGeometry x="1070" y="1740" width="90" height="70" as="geometry" />
        </mxCell>
        <mxCell id="1oKnx7t8Xmumv9tewnxi-108" value="" style="endArrow=classic;html=1;rounded=0;exitX=0.5;exitY=1;exitDx=0;exitDy=0;entryX=0.5;entryY=0;entryDx=0;entryDy=0;" edge="1" parent="1" source="1oKnx7t8Xmumv9tewnxi-105" target="1oKnx7t8Xmumv9tewnxi-107">
          <mxGeometry width="50" height="50" relative="1" as="geometry">
            <mxPoint x="850" y="1570" as="sourcePoint" />
            <mxPoint x="900" y="1520" as="targetPoint" />
          </mxGeometry>
        </mxCell>
        <mxCell id="1oKnx7t8Xmumv9tewnxi-109" value="In thông báo lỗi và đợi 2 giây" style="rounded=0;whiteSpace=wrap;html=1;" vertex="1" parent="1">
          <mxGeometry x="1241" y="580" width="120" height="60" as="geometry" />
        </mxCell>
        <mxCell id="1oKnx7t8Xmumv9tewnxi-110" value="Đúng" style="text;html=1;align=center;verticalAlign=middle;whiteSpace=wrap;rounded=0;" vertex="1" parent="1">
          <mxGeometry x="1056" y="650" width="60" height="30" as="geometry" />
        </mxCell>
        <mxCell id="1oKnx7t8Xmumv9tewnxi-112" value="Sai" style="text;html=1;align=center;verticalAlign=middle;whiteSpace=wrap;rounded=0;" vertex="1" parent="1">
          <mxGeometry x="1175" y="580" width="60" height="30" as="geometry" />
        </mxCell>
        <mxCell id="1oKnx7t8Xmumv9tewnxi-113" value="" style="endArrow=classic;html=1;rounded=0;entryX=1;entryY=0.5;entryDx=0;entryDy=0;exitX=0.5;exitY=0;exitDx=0;exitDy=0;" edge="1" parent="1" source="1oKnx7t8Xmumv9tewnxi-109" target="1oKnx7t8Xmumv9tewnxi-91">
          <mxGeometry width="50" height="50" relative="1" as="geometry">
            <mxPoint x="850" y="730" as="sourcePoint" />
            <mxPoint x="900" y="680" as="targetPoint" />
            <Array as="points">
              <mxPoint x="1300" y="510" />
            </Array>
          </mxGeometry>
        </mxCell>
        <mxCell id="1oKnx7t8Xmumv9tewnxi-115" value="&lt;p style=&quot;line-height: 1.15px; margin-bottom: 0in; background: transparent; font-size: medium;&quot; align=&quot;justify&quot;&gt;&lt;font face=&quot;Time new roman&quot;&gt;&lt;font style=&quot;font-size: 14pt;&quot;&gt;3.5.3. Lưu đồ quá trình khởi tạo mô hình AI&lt;/font&gt;&lt;/font&gt;&lt;/p&gt;" style="text;html=1;align=center;verticalAlign=middle;whiteSpace=wrap;rounded=0;" vertex="1" parent="1">
          <mxGeometry x="1670" y="100" width="380" height="30" as="geometry" />
        </mxCell>
        <mxCell id="1oKnx7t8Xmumv9tewnxi-116" value="Bắt đầu" style="ellipse;whiteSpace=wrap;html=1;" vertex="1" parent="1">
          <mxGeometry x="1830" y="160" width="90" height="70" as="geometry" />
        </mxCell>
        <mxCell id="1oKnx7t8Xmumv9tewnxi-117" value="Thu thập dữ liệu và upload dữ liệu lên google colab" style="rounded=0;whiteSpace=wrap;html=1;" vertex="1" parent="1">
          <mxGeometry x="1815" y="260" width="120" height="60" as="geometry" />
        </mxCell>
        <mxCell id="1oKnx7t8Xmumv9tewnxi-118" value="" style="endArrow=classic;html=1;rounded=0;exitX=0.5;exitY=1;exitDx=0;exitDy=0;entryX=0.5;entryY=0;entryDx=0;entryDy=0;" edge="1" parent="1" source="1oKnx7t8Xmumv9tewnxi-116" target="1oKnx7t8Xmumv9tewnxi-117">
          <mxGeometry width="50" height="50" relative="1" as="geometry">
            <mxPoint x="1560" y="490" as="sourcePoint" />
            <mxPoint x="1610" y="440" as="targetPoint" />
          </mxGeometry>
        </mxCell>
        <mxCell id="1oKnx7t8Xmumv9tewnxi-119" value="" style="endArrow=classic;html=1;rounded=0;exitX=0.5;exitY=1;exitDx=0;exitDy=0;" edge="1" parent="1" source="1oKnx7t8Xmumv9tewnxi-117">
          <mxGeometry width="50" height="50" relative="1" as="geometry">
            <mxPoint x="1560" y="490" as="sourcePoint" />
            <mxPoint x="1875" y="350" as="targetPoint" />
          </mxGeometry>
        </mxCell>
        <mxCell id="1oKnx7t8Xmumv9tewnxi-120" value="Tiền xử lí dữ liệu như ở 3.5.2.1." style="rounded=0;whiteSpace=wrap;html=1;" vertex="1" parent="1">
          <mxGeometry x="1815" y="355" width="120" height="60" as="geometry" />
        </mxCell>
        <mxCell id="1oKnx7t8Xmumv9tewnxi-121" value="Gán nhãn dữ liệu" style="rounded=0;whiteSpace=wrap;html=1;" vertex="1" parent="1">
          <mxGeometry x="1815" y="460" width="120" height="60" as="geometry" />
        </mxCell>
        <mxCell id="1oKnx7t8Xmumv9tewnxi-122" value="" style="endArrow=classic;html=1;rounded=0;exitX=0.5;exitY=1;exitDx=0;exitDy=0;entryX=0.5;entryY=0;entryDx=0;entryDy=0;" edge="1" parent="1" source="1oKnx7t8Xmumv9tewnxi-120" target="1oKnx7t8Xmumv9tewnxi-121">
          <mxGeometry width="50" height="50" relative="1" as="geometry">
            <mxPoint x="1560" y="490" as="sourcePoint" />
            <mxPoint x="1610" y="440" as="targetPoint" />
          </mxGeometry>
        </mxCell>
        <mxCell id="1oKnx7t8Xmumv9tewnxi-123" value="Chia tập dữ liệu thành train, test, val" style="rounded=0;whiteSpace=wrap;html=1;" vertex="1" parent="1">
          <mxGeometry x="1815" y="560" width="120" height="60" as="geometry" />
        </mxCell>
        <mxCell id="1oKnx7t8Xmumv9tewnxi-124" value="" style="endArrow=classic;html=1;rounded=0;exitX=0.5;exitY=1;exitDx=0;exitDy=0;entryX=0.5;entryY=0;entryDx=0;entryDy=0;" edge="1" parent="1" source="1oKnx7t8Xmumv9tewnxi-121" target="1oKnx7t8Xmumv9tewnxi-123">
          <mxGeometry width="50" height="50" relative="1" as="geometry">
            <mxPoint x="1560" y="490" as="sourcePoint" />
            <mxPoint x="1610" y="440" as="targetPoint" />
          </mxGeometry>
        </mxCell>
        <mxCell id="1oKnx7t8Xmumv9tewnxi-125" value="Xây dựng model" style="rounded=0;whiteSpace=wrap;html=1;" vertex="1" parent="1">
          <mxGeometry x="1815" y="660" width="120" height="60" as="geometry" />
        </mxCell>
        <mxCell id="1oKnx7t8Xmumv9tewnxi-126" value="" style="endArrow=classic;html=1;rounded=0;exitX=0.5;exitY=1;exitDx=0;exitDy=0;entryX=0.5;entryY=0;entryDx=0;entryDy=0;" edge="1" parent="1" source="1oKnx7t8Xmumv9tewnxi-123" target="1oKnx7t8Xmumv9tewnxi-125">
          <mxGeometry width="50" height="50" relative="1" as="geometry">
            <mxPoint x="1560" y="490" as="sourcePoint" />
            <mxPoint x="1610" y="440" as="targetPoint" />
          </mxGeometry>
        </mxCell>
        <mxCell id="1oKnx7t8Xmumv9tewnxi-127" value="Train model" style="rounded=0;whiteSpace=wrap;html=1;" vertex="1" parent="1">
          <mxGeometry x="1815" y="755" width="120" height="60" as="geometry" />
        </mxCell>
        <mxCell id="1oKnx7t8Xmumv9tewnxi-128" value="" style="endArrow=classic;html=1;rounded=0;exitX=0.5;exitY=1;exitDx=0;exitDy=0;entryX=0.5;entryY=0;entryDx=0;entryDy=0;" edge="1" parent="1" source="1oKnx7t8Xmumv9tewnxi-125" target="1oKnx7t8Xmumv9tewnxi-127">
          <mxGeometry width="50" height="50" relative="1" as="geometry">
            <mxPoint x="1560" y="610" as="sourcePoint" />
            <mxPoint x="1610" y="560" as="targetPoint" />
          </mxGeometry>
        </mxCell>
        <mxCell id="1oKnx7t8Xmumv9tewnxi-129" value="Đánh giá model" style="rounded=0;whiteSpace=wrap;html=1;" vertex="1" parent="1">
          <mxGeometry x="1815" y="850" width="120" height="60" as="geometry" />
        </mxCell>
        <mxCell id="1oKnx7t8Xmumv9tewnxi-130" value="" style="endArrow=classic;html=1;rounded=0;exitX=0.5;exitY=1;exitDx=0;exitDy=0;entryX=0.5;entryY=0;entryDx=0;entryDy=0;" edge="1" parent="1" source="1oKnx7t8Xmumv9tewnxi-127" target="1oKnx7t8Xmumv9tewnxi-129">
          <mxGeometry width="50" height="50" relative="1" as="geometry">
            <mxPoint x="1560" y="610" as="sourcePoint" />
            <mxPoint x="1610" y="560" as="targetPoint" />
          </mxGeometry>
        </mxCell>
        <mxCell id="1oKnx7t8Xmumv9tewnxi-131" value="Lưu model" style="rounded=0;whiteSpace=wrap;html=1;" vertex="1" parent="1">
          <mxGeometry x="1815" y="950" width="120" height="60" as="geometry" />
        </mxCell>
        <mxCell id="1oKnx7t8Xmumv9tewnxi-132" value="" style="endArrow=classic;html=1;rounded=0;exitX=0.5;exitY=1;exitDx=0;exitDy=0;entryX=0.5;entryY=0;entryDx=0;entryDy=0;" edge="1" parent="1" source="1oKnx7t8Xmumv9tewnxi-129" target="1oKnx7t8Xmumv9tewnxi-131">
          <mxGeometry width="50" height="50" relative="1" as="geometry">
            <mxPoint x="1560" y="710" as="sourcePoint" />
            <mxPoint x="1610" y="660" as="targetPoint" />
          </mxGeometry>
        </mxCell>
        <mxCell id="1oKnx7t8Xmumv9tewnxi-133" value="Kết thúc" style="ellipse;whiteSpace=wrap;html=1;" vertex="1" parent="1">
          <mxGeometry x="1830" y="1040" width="90" height="70" as="geometry" />
        </mxCell>
        <mxCell id="1oKnx7t8Xmumv9tewnxi-134" value="" style="endArrow=classic;html=1;rounded=0;exitX=0.5;exitY=1;exitDx=0;exitDy=0;entryX=0.5;entryY=0;entryDx=0;entryDy=0;" edge="1" parent="1" source="1oKnx7t8Xmumv9tewnxi-131" target="1oKnx7t8Xmumv9tewnxi-133">
          <mxGeometry width="50" height="50" relative="1" as="geometry">
            <mxPoint x="1560" y="700" as="sourcePoint" />
            <mxPoint x="1610" y="650" as="targetPoint" />
          </mxGeometry>
        </mxCell>
        <mxCell id="1oKnx7t8Xmumv9tewnxi-135" value="Các quá trình cụ thể cũng như kiến trúc mô hình và những gì đã test được thể hiện rõ trong code. -&amp;gt; đưa file code lên google drive rồi dán link vào đây" style="text;html=1;align=center;verticalAlign=middle;whiteSpace=wrap;rounded=0;" vertex="1" parent="1">
          <mxGeometry x="1580" y="1170" width="610" height="30" as="geometry" />
        </mxCell>
        <mxCell id="1oKnx7t8Xmumv9tewnxi-136" value="&lt;p style=&quot;line-height: 1.15px; margin-bottom: 0in; background: transparent; font-size: medium;&quot; align=&quot;justify&quot;&gt;&lt;font face=&quot;Time new roman&quot;&gt;&lt;font style=&quot;font-size: 14pt;&quot;&gt;3.5.4. Lưu đồ giải thuật cho node xử lí điều khiển thiết bị.&lt;/font&gt;&lt;/font&gt;&lt;/p&gt;" style="text;html=1;align=center;verticalAlign=middle;whiteSpace=wrap;rounded=0;" vertex="1" parent="1">
          <mxGeometry x="2360" y="100" width="450" height="30" as="geometry" />
        </mxCell>
        <mxCell id="1oKnx7t8Xmumv9tewnxi-137" value="Bắt đầu" style="ellipse;whiteSpace=wrap;html=1;" vertex="1" parent="1">
          <mxGeometry x="2550" y="160" width="90" height="70" as="geometry" />
        </mxCell>
        <mxCell id="1oKnx7t8Xmumv9tewnxi-138" value="Khởi tạo WiFi như ở 3.5.1.1" style="shape=process;whiteSpace=wrap;html=1;backgroundOutline=1;" vertex="1" parent="1">
          <mxGeometry x="2535" y="260" width="120" height="60" as="geometry" />
        </mxCell>
        <mxCell id="1oKnx7t8Xmumv9tewnxi-139" value="Khởi tạo MQTT" style="shape=process;whiteSpace=wrap;html=1;backgroundOutline=1;" vertex="1" parent="1">
          <mxGeometry x="2535" y="355" width="120" height="60" as="geometry" />
        </mxCell>
        <mxCell id="1oKnx7t8Xmumv9tewnxi-140" value="Khởi tạo màn hình TFT" style="shape=process;whiteSpace=wrap;html=1;backgroundOutline=1;" vertex="1" parent="1">
          <mxGeometry x="2535" y="460" width="120" height="60" as="geometry" />
        </mxCell>
        <mxCell id="1oKnx7t8Xmumv9tewnxi-141" value="Khởi tạo cảm biến DHT" style="shape=process;whiteSpace=wrap;html=1;backgroundOutline=1;" vertex="1" parent="1">
          <mxGeometry x="2535" y="560" width="120" height="60" as="geometry" />
        </mxCell>
        <mxCell id="1oKnx7t8Xmumv9tewnxi-142" value="Khởi tạo GPIO" style="rounded=0;whiteSpace=wrap;html=1;" vertex="1" parent="1">
          <mxGeometry x="2535" y="660" width="120" height="60" as="geometry" />
        </mxCell>
        <mxCell id="1oKnx7t8Xmumv9tewnxi-144" value="Vòng lặp" style="shape=process;whiteSpace=wrap;html=1;backgroundOutline=1;" vertex="1" parent="1">
          <mxGeometry x="2535" y="760" width="120" height="60" as="geometry" />
        </mxCell>
        <mxCell id="1oKnx7t8Xmumv9tewnxi-145" value="" style="endArrow=classic;html=1;rounded=0;exitX=0.5;exitY=1;exitDx=0;exitDy=0;entryX=0.5;entryY=0;entryDx=0;entryDy=0;" edge="1" parent="1" source="1oKnx7t8Xmumv9tewnxi-137" target="1oKnx7t8Xmumv9tewnxi-138">
          <mxGeometry width="50" height="50" relative="1" as="geometry">
            <mxPoint x="2880" y="580" as="sourcePoint" />
            <mxPoint x="2930" y="530" as="targetPoint" />
          </mxGeometry>
        </mxCell>
        <mxCell id="1oKnx7t8Xmumv9tewnxi-146" value="" style="endArrow=classic;html=1;rounded=0;exitX=0.5;exitY=1;exitDx=0;exitDy=0;entryX=0.5;entryY=0;entryDx=0;entryDy=0;" edge="1" parent="1" source="1oKnx7t8Xmumv9tewnxi-138" target="1oKnx7t8Xmumv9tewnxi-139">
          <mxGeometry width="50" height="50" relative="1" as="geometry">
            <mxPoint x="2880" y="580" as="sourcePoint" />
            <mxPoint x="2930" y="530" as="targetPoint" />
          </mxGeometry>
        </mxCell>
        <mxCell id="1oKnx7t8Xmumv9tewnxi-147" value="" style="endArrow=classic;html=1;rounded=0;exitX=0.5;exitY=1;exitDx=0;exitDy=0;entryX=0.5;entryY=0;entryDx=0;entryDy=0;" edge="1" parent="1" source="1oKnx7t8Xmumv9tewnxi-139" target="1oKnx7t8Xmumv9tewnxi-140">
          <mxGeometry width="50" height="50" relative="1" as="geometry">
            <mxPoint x="2880" y="580" as="sourcePoint" />
            <mxPoint x="2930" y="530" as="targetPoint" />
          </mxGeometry>
        </mxCell>
        <mxCell id="1oKnx7t8Xmumv9tewnxi-148" value="" style="endArrow=classic;html=1;rounded=0;exitX=0.5;exitY=1;exitDx=0;exitDy=0;" edge="1" parent="1" source="1oKnx7t8Xmumv9tewnxi-140" target="1oKnx7t8Xmumv9tewnxi-141">
          <mxGeometry width="50" height="50" relative="1" as="geometry">
            <mxPoint x="2880" y="580" as="sourcePoint" />
            <mxPoint x="2930" y="530" as="targetPoint" />
          </mxGeometry>
        </mxCell>
        <mxCell id="1oKnx7t8Xmumv9tewnxi-149" value="" style="endArrow=classic;html=1;rounded=0;exitX=0.5;exitY=1;exitDx=0;exitDy=0;entryX=0.5;entryY=0;entryDx=0;entryDy=0;" edge="1" parent="1" source="1oKnx7t8Xmumv9tewnxi-141" target="1oKnx7t8Xmumv9tewnxi-142">
          <mxGeometry width="50" height="50" relative="1" as="geometry">
            <mxPoint x="2880" y="580" as="sourcePoint" />
            <mxPoint x="2930" y="530" as="targetPoint" />
          </mxGeometry>
        </mxCell>
        <mxCell id="1oKnx7t8Xmumv9tewnxi-150" value="" style="endArrow=classic;html=1;rounded=0;exitX=0.5;exitY=1;exitDx=0;exitDy=0;entryX=0.5;entryY=0;entryDx=0;entryDy=0;" edge="1" parent="1" source="1oKnx7t8Xmumv9tewnxi-142" target="1oKnx7t8Xmumv9tewnxi-144">
          <mxGeometry width="50" height="50" relative="1" as="geometry">
            <mxPoint x="2880" y="580" as="sourcePoint" />
            <mxPoint x="2930" y="530" as="targetPoint" />
          </mxGeometry>
        </mxCell>
        <mxCell id="1oKnx7t8Xmumv9tewnxi-151" value="" style="endArrow=classic;html=1;rounded=0;exitX=1;exitY=0.5;exitDx=0;exitDy=0;" edge="1" parent="1" source="1oKnx7t8Xmumv9tewnxi-144">
          <mxGeometry width="50" height="50" relative="1" as="geometry">
            <mxPoint x="2880" y="580" as="sourcePoint" />
            <mxPoint x="2600" y="740" as="targetPoint" />
            <Array as="points">
              <mxPoint x="2740" y="790" />
              <mxPoint x="2740" y="740" />
            </Array>
          </mxGeometry>
        </mxCell>
        <mxCell id="1oKnx7t8Xmumv9tewnxi-152" value="&lt;p style=&quot;line-height: 1.15px; margin-bottom: 0in; background: transparent; font-size: medium;&quot; align=&quot;justify&quot;&gt;&lt;font face=&quot;Time new roman&quot;&gt;&lt;font style=&quot;font-size: 14pt;&quot;&gt;3.5.4.1. Lưu đồ giải thuật cho hàm khởi tạo MQTT&lt;/font&gt;&lt;/font&gt;&lt;/p&gt;" style="text;html=1;align=center;verticalAlign=middle;whiteSpace=wrap;rounded=0;" vertex="1" parent="1">
          <mxGeometry x="2360" y="880" width="450" height="30" as="geometry" />
        </mxCell>
        <mxCell id="1oKnx7t8Xmumv9tewnxi-153" value="Bắt đầu" style="ellipse;whiteSpace=wrap;html=1;" vertex="1" parent="1">
          <mxGeometry x="2540" y="930" width="90" height="70" as="geometry" />
        </mxCell>
        <mxCell id="1oKnx7t8Xmumv9tewnxi-154" value="Cài đặt server, port" style="rounded=0;whiteSpace=wrap;html=1;" vertex="1" parent="1">
          <mxGeometry x="2525" y="1030" width="120" height="60" as="geometry" />
        </mxCell>
        <mxCell id="1oKnx7t8Xmumv9tewnxi-155" value="" style="endArrow=classic;html=1;rounded=0;exitX=0.5;exitY=1;exitDx=0;exitDy=0;entryX=0.5;entryY=0;entryDx=0;entryDy=0;" edge="1" parent="1" source="1oKnx7t8Xmumv9tewnxi-153" target="1oKnx7t8Xmumv9tewnxi-154">
          <mxGeometry width="50" height="50" relative="1" as="geometry">
            <mxPoint x="2880" y="920" as="sourcePoint" />
            <mxPoint x="2930" y="870" as="targetPoint" />
          </mxGeometry>
        </mxCell>
        <mxCell id="1oKnx7t8Xmumv9tewnxi-156" value="Cài đặt hàm callback" style="rounded=0;whiteSpace=wrap;html=1;" vertex="1" parent="1">
          <mxGeometry x="2525" y="1120" width="120" height="60" as="geometry" />
        </mxCell>
        <mxCell id="1oKnx7t8Xmumv9tewnxi-157" value="Cài đặt loại bảo mật" style="rounded=0;whiteSpace=wrap;html=1;" vertex="1" parent="1">
          <mxGeometry x="2525" y="1215" width="120" height="60" as="geometry" />
        </mxCell>
        <mxCell id="1oKnx7t8Xmumv9tewnxi-158" value="" style="endArrow=classic;html=1;rounded=0;exitX=0.5;exitY=1;exitDx=0;exitDy=0;entryX=0.5;entryY=0;entryDx=0;entryDy=0;" edge="1" parent="1" source="1oKnx7t8Xmumv9tewnxi-154" target="1oKnx7t8Xmumv9tewnxi-156">
          <mxGeometry width="50" height="50" relative="1" as="geometry">
            <mxPoint x="2880" y="1160" as="sourcePoint" />
            <mxPoint x="2930" y="1110" as="targetPoint" />
          </mxGeometry>
        </mxCell>
        <mxCell id="1oKnx7t8Xmumv9tewnxi-159" value="" style="endArrow=classic;html=1;rounded=0;exitX=0.5;exitY=1;exitDx=0;exitDy=0;entryX=0.5;entryY=0;entryDx=0;entryDy=0;" edge="1" parent="1" source="1oKnx7t8Xmumv9tewnxi-156" target="1oKnx7t8Xmumv9tewnxi-157">
          <mxGeometry width="50" height="50" relative="1" as="geometry">
            <mxPoint x="2880" y="1160" as="sourcePoint" />
            <mxPoint x="2930" y="1110" as="targetPoint" />
          </mxGeometry>
        </mxCell>
        <mxCell id="1oKnx7t8Xmumv9tewnxi-160" value="Kết thúc" style="ellipse;whiteSpace=wrap;html=1;" vertex="1" parent="1">
          <mxGeometry x="2540" y="1310" width="90" height="70" as="geometry" />
        </mxCell>
        <mxCell id="1oKnx7t8Xmumv9tewnxi-161" value="" style="endArrow=classic;html=1;rounded=0;exitX=0.5;exitY=1;exitDx=0;exitDy=0;entryX=0.5;entryY=0;entryDx=0;entryDy=0;" edge="1" parent="1" source="1oKnx7t8Xmumv9tewnxi-157" target="1oKnx7t8Xmumv9tewnxi-160">
          <mxGeometry width="50" height="50" relative="1" as="geometry">
            <mxPoint x="2880" y="1160" as="sourcePoint" />
            <mxPoint x="2930" y="1110" as="targetPoint" />
          </mxGeometry>
        </mxCell>
        <mxCell id="1oKnx7t8Xmumv9tewnxi-162" value="&lt;p style=&quot;line-height: 1.15px; margin-bottom: 0in; background: transparent; font-size: medium;&quot; align=&quot;justify&quot;&gt;&lt;font face=&quot;Time new roman&quot;&gt;&lt;font style=&quot;font-size: 14pt;&quot;&gt;Hàm callback&lt;/font&gt;&lt;/font&gt;&lt;/p&gt;" style="text;html=1;align=center;verticalAlign=middle;whiteSpace=wrap;rounded=0;" vertex="1" parent="1">
          <mxGeometry x="2710" y="990" width="450" height="30" as="geometry" />
        </mxCell>
        <mxCell id="1oKnx7t8Xmumv9tewnxi-163" value="Bắt đầu" style="ellipse;whiteSpace=wrap;html=1;" vertex="1" parent="1">
          <mxGeometry x="2890" y="1040" width="90" height="70" as="geometry" />
        </mxCell>
        <mxCell id="1oKnx7t8Xmumv9tewnxi-164" value="message == 0 ?" style="rhombus;whiteSpace=wrap;html=1;" vertex="1" parent="1">
          <mxGeometry x="2870" y="1230" width="130" height="75" as="geometry" />
        </mxCell>
        <mxCell id="1oKnx7t8Xmumv9tewnxi-165" value="Tạo chuỗi nhận từ MQTT với tên message" style="rounded=0;whiteSpace=wrap;html=1;" vertex="1" parent="1">
          <mxGeometry x="2867.5" y="1140" width="135" height="60" as="geometry" />
        </mxCell>
        <mxCell id="1oKnx7t8Xmumv9tewnxi-166" value="" style="endArrow=classic;html=1;rounded=0;exitX=0.5;exitY=1;exitDx=0;exitDy=0;entryX=0.5;entryY=0;entryDx=0;entryDy=0;" edge="1" parent="1" source="1oKnx7t8Xmumv9tewnxi-163" target="1oKnx7t8Xmumv9tewnxi-165">
          <mxGeometry width="50" height="50" relative="1" as="geometry">
            <mxPoint x="2880" y="1160" as="sourcePoint" />
            <mxPoint x="2930" y="1110" as="targetPoint" />
          </mxGeometry>
        </mxCell>
        <mxCell id="1oKnx7t8Xmumv9tewnxi-167" value="" style="endArrow=classic;html=1;rounded=0;exitX=0.5;exitY=1;exitDx=0;exitDy=0;entryX=0.5;entryY=0;entryDx=0;entryDy=0;" edge="1" parent="1" source="1oKnx7t8Xmumv9tewnxi-165" target="1oKnx7t8Xmumv9tewnxi-164">
          <mxGeometry width="50" height="50" relative="1" as="geometry">
            <mxPoint x="2880" y="1160" as="sourcePoint" />
            <mxPoint x="2930" y="1110" as="targetPoint" />
          </mxGeometry>
        </mxCell>
        <mxCell id="1oKnx7t8Xmumv9tewnxi-168" value="" style="endArrow=classic;html=1;rounded=0;exitX=0.5;exitY=1;exitDx=0;exitDy=0;" edge="1" parent="1" source="1oKnx7t8Xmumv9tewnxi-164">
          <mxGeometry width="50" height="50" relative="1" as="geometry">
            <mxPoint x="2880" y="1160" as="sourcePoint" />
            <mxPoint x="2935" y="1340" as="targetPoint" />
          </mxGeometry>
        </mxCell>
        <mxCell id="1oKnx7t8Xmumv9tewnxi-169" value="Bật thiết bị 1" style="rounded=0;whiteSpace=wrap;html=1;" vertex="1" parent="1">
          <mxGeometry x="2875" y="1340" width="120" height="50" as="geometry" />
        </mxCell>
        <mxCell id="1oKnx7t8Xmumv9tewnxi-170" value="Kết thúc" style="ellipse;whiteSpace=wrap;html=1;" vertex="1" parent="1">
          <mxGeometry x="2890" y="1450" width="90" height="70" as="geometry" />
        </mxCell>
        <mxCell id="1oKnx7t8Xmumv9tewnxi-171" value="" style="endArrow=classic;html=1;rounded=0;exitX=0.5;exitY=1;exitDx=0;exitDy=0;entryX=0.5;entryY=0;entryDx=0;entryDy=0;" edge="1" parent="1" source="1oKnx7t8Xmumv9tewnxi-169" target="1oKnx7t8Xmumv9tewnxi-170">
          <mxGeometry width="50" height="50" relative="1" as="geometry">
            <mxPoint x="2880" y="1160" as="sourcePoint" />
            <mxPoint x="2930" y="1110" as="targetPoint" />
          </mxGeometry>
        </mxCell>
        <mxCell id="1oKnx7t8Xmumv9tewnxi-173" value="" style="endArrow=classic;html=1;rounded=0;exitX=1;exitY=0.5;exitDx=0;exitDy=0;" edge="1" parent="1" source="1oKnx7t8Xmumv9tewnxi-164">
          <mxGeometry width="50" height="50" relative="1" as="geometry">
            <mxPoint x="2880" y="1160" as="sourcePoint" />
            <mxPoint x="3050" y="1268" as="targetPoint" />
          </mxGeometry>
        </mxCell>
        <mxCell id="1oKnx7t8Xmumv9tewnxi-175" value="Đúng" style="text;html=1;align=center;verticalAlign=middle;whiteSpace=wrap;rounded=0;" vertex="1" parent="1">
          <mxGeometry x="2930" y="1305" width="60" height="30" as="geometry" />
        </mxCell>
        <mxCell id="1oKnx7t8Xmumv9tewnxi-176" value="Sai" style="text;html=1;align=center;verticalAlign=middle;whiteSpace=wrap;rounded=0;" vertex="1" parent="1">
          <mxGeometry x="2990" y="1240" width="60" height="30" as="geometry" />
        </mxCell>
        <mxCell id="1oKnx7t8Xmumv9tewnxi-177" value="message == 1 ?" style="rhombus;whiteSpace=wrap;html=1;" vertex="1" parent="1">
          <mxGeometry x="3050" y="1230" width="130" height="75" as="geometry" />
        </mxCell>
        <mxCell id="1oKnx7t8Xmumv9tewnxi-178" value="" style="endArrow=classic;html=1;rounded=0;exitX=0.5;exitY=1;exitDx=0;exitDy=0;" edge="1" parent="1" source="1oKnx7t8Xmumv9tewnxi-177">
          <mxGeometry width="50" height="50" relative="1" as="geometry">
            <mxPoint x="3060" y="1160" as="sourcePoint" />
            <mxPoint x="3115" y="1340" as="targetPoint" />
          </mxGeometry>
        </mxCell>
        <mxCell id="1oKnx7t8Xmumv9tewnxi-179" value="Tắt thiết bị 1" style="rounded=0;whiteSpace=wrap;html=1;" vertex="1" parent="1">
          <mxGeometry x="3055" y="1340" width="120" height="50" as="geometry" />
        </mxCell>
        <mxCell id="1oKnx7t8Xmumv9tewnxi-180" value="" style="endArrow=classic;html=1;rounded=0;exitX=1;exitY=0.5;exitDx=0;exitDy=0;" edge="1" parent="1" source="1oKnx7t8Xmumv9tewnxi-177">
          <mxGeometry width="50" height="50" relative="1" as="geometry">
            <mxPoint x="3060" y="1160" as="sourcePoint" />
            <mxPoint x="3230" y="1268" as="targetPoint" />
          </mxGeometry>
        </mxCell>
        <mxCell id="1oKnx7t8Xmumv9tewnxi-181" value="Đúng" style="text;html=1;align=center;verticalAlign=middle;whiteSpace=wrap;rounded=0;" vertex="1" parent="1">
          <mxGeometry x="3110" y="1305" width="60" height="30" as="geometry" />
        </mxCell>
        <mxCell id="1oKnx7t8Xmumv9tewnxi-182" value="Sai" style="text;html=1;align=center;verticalAlign=middle;whiteSpace=wrap;rounded=0;" vertex="1" parent="1">
          <mxGeometry x="3170" y="1240" width="60" height="30" as="geometry" />
        </mxCell>
        <mxCell id="1oKnx7t8Xmumv9tewnxi-183" value="message == 2 ?" style="rhombus;whiteSpace=wrap;html=1;" vertex="1" parent="1">
          <mxGeometry x="3230" y="1230" width="130" height="75" as="geometry" />
        </mxCell>
        <mxCell id="1oKnx7t8Xmumv9tewnxi-184" value="" style="endArrow=classic;html=1;rounded=0;exitX=0.5;exitY=1;exitDx=0;exitDy=0;" edge="1" parent="1" source="1oKnx7t8Xmumv9tewnxi-183">
          <mxGeometry width="50" height="50" relative="1" as="geometry">
            <mxPoint x="3240" y="1160" as="sourcePoint" />
            <mxPoint x="3295" y="1340" as="targetPoint" />
          </mxGeometry>
        </mxCell>
        <mxCell id="1oKnx7t8Xmumv9tewnxi-185" value="Bật thiết bị 2" style="rounded=0;whiteSpace=wrap;html=1;" vertex="1" parent="1">
          <mxGeometry x="3235" y="1340" width="120" height="50" as="geometry" />
        </mxCell>
        <mxCell id="1oKnx7t8Xmumv9tewnxi-186" value="" style="endArrow=classic;html=1;rounded=0;exitX=1;exitY=0.5;exitDx=0;exitDy=0;" edge="1" parent="1" source="1oKnx7t8Xmumv9tewnxi-183">
          <mxGeometry width="50" height="50" relative="1" as="geometry">
            <mxPoint x="3240" y="1160" as="sourcePoint" />
            <mxPoint x="3410" y="1268" as="targetPoint" />
          </mxGeometry>
        </mxCell>
        <mxCell id="1oKnx7t8Xmumv9tewnxi-187" value="Đúng" style="text;html=1;align=center;verticalAlign=middle;whiteSpace=wrap;rounded=0;" vertex="1" parent="1">
          <mxGeometry x="3290" y="1305" width="60" height="30" as="geometry" />
        </mxCell>
        <mxCell id="1oKnx7t8Xmumv9tewnxi-188" value="Sai" style="text;html=1;align=center;verticalAlign=middle;whiteSpace=wrap;rounded=0;" vertex="1" parent="1">
          <mxGeometry x="3350" y="1240" width="60" height="30" as="geometry" />
        </mxCell>
        <mxCell id="1oKnx7t8Xmumv9tewnxi-189" value="message == 3 ?" style="rhombus;whiteSpace=wrap;html=1;" vertex="1" parent="1">
          <mxGeometry x="3410" y="1230" width="130" height="75" as="geometry" />
        </mxCell>
        <mxCell id="1oKnx7t8Xmumv9tewnxi-190" value="" style="endArrow=classic;html=1;rounded=0;exitX=0.5;exitY=1;exitDx=0;exitDy=0;" edge="1" parent="1" source="1oKnx7t8Xmumv9tewnxi-189">
          <mxGeometry width="50" height="50" relative="1" as="geometry">
            <mxPoint x="3420" y="1160" as="sourcePoint" />
            <mxPoint x="3475" y="1340" as="targetPoint" />
          </mxGeometry>
        </mxCell>
        <mxCell id="1oKnx7t8Xmumv9tewnxi-191" value="Tắt thiết bị 2" style="rounded=0;whiteSpace=wrap;html=1;" vertex="1" parent="1">
          <mxGeometry x="3415" y="1340" width="120" height="50" as="geometry" />
        </mxCell>
        <mxCell id="1oKnx7t8Xmumv9tewnxi-192" value="" style="endArrow=classic;html=1;rounded=0;exitX=1;exitY=0.5;exitDx=0;exitDy=0;" edge="1" parent="1" source="1oKnx7t8Xmumv9tewnxi-189">
          <mxGeometry width="50" height="50" relative="1" as="geometry">
            <mxPoint x="3420" y="1160" as="sourcePoint" />
            <mxPoint x="3475" y="1420" as="targetPoint" />
            <Array as="points">
              <mxPoint x="3610" y="1268" />
              <mxPoint x="3610" y="1420" />
            </Array>
          </mxGeometry>
        </mxCell>
        <mxCell id="1oKnx7t8Xmumv9tewnxi-193" value="Đúng" style="text;html=1;align=center;verticalAlign=middle;whiteSpace=wrap;rounded=0;" vertex="1" parent="1">
          <mxGeometry x="3470" y="1305" width="60" height="30" as="geometry" />
        </mxCell>
        <mxCell id="1oKnx7t8Xmumv9tewnxi-195" value="" style="endArrow=classic;html=1;rounded=0;exitX=0.5;exitY=1;exitDx=0;exitDy=0;" edge="1" parent="1" source="1oKnx7t8Xmumv9tewnxi-179">
          <mxGeometry width="50" height="50" relative="1" as="geometry">
            <mxPoint x="2880" y="1160" as="sourcePoint" />
            <mxPoint x="3115" y="1420" as="targetPoint" />
          </mxGeometry>
        </mxCell>
        <mxCell id="1oKnx7t8Xmumv9tewnxi-196" value="" style="endArrow=classic;html=1;rounded=0;exitX=0.5;exitY=1;exitDx=0;exitDy=0;" edge="1" parent="1" source="1oKnx7t8Xmumv9tewnxi-185">
          <mxGeometry width="50" height="50" relative="1" as="geometry">
            <mxPoint x="3125" y="1400" as="sourcePoint" />
            <mxPoint x="3295" y="1420" as="targetPoint" />
          </mxGeometry>
        </mxCell>
        <mxCell id="1oKnx7t8Xmumv9tewnxi-197" value="" style="endArrow=classic;html=1;rounded=0;exitX=0.5;exitY=1;exitDx=0;exitDy=0;" edge="1" parent="1" source="1oKnx7t8Xmumv9tewnxi-191">
          <mxGeometry width="50" height="50" relative="1" as="geometry">
            <mxPoint x="2880" y="1160" as="sourcePoint" />
            <mxPoint x="2940" y="1420" as="targetPoint" />
            <Array as="points">
              <mxPoint x="3475" y="1420" />
            </Array>
          </mxGeometry>
        </mxCell>
        <mxCell id="1oKnx7t8Xmumv9tewnxi-198" value="Sai" style="text;html=1;align=center;verticalAlign=middle;whiteSpace=wrap;rounded=0;" vertex="1" parent="1">
          <mxGeometry x="3520" y="1230" width="60" height="30" as="geometry" />
        </mxCell>
        <mxCell id="1oKnx7t8Xmumv9tewnxi-199" value="Thông báo lỗi qua uart" style="rounded=0;whiteSpace=wrap;html=1;" vertex="1" parent="1">
          <mxGeometry x="3570" y="1242.5" width="80" height="50" as="geometry" />
        </mxCell>
        <mxCell id="1oKnx7t8Xmumv9tewnxi-200" value="&lt;p style=&quot;line-height: 1.15px; margin-bottom: 0in; background: transparent; font-size: medium;&quot; align=&quot;justify&quot;&gt;&lt;font face=&quot;Time new roman&quot;&gt;&lt;font style=&quot;font-size: 14pt;&quot;&gt;3.5.4.2. Lưu đồ giải thuật cho hàm khởi tạo màn hình TFT&lt;/font&gt;&lt;/font&gt;&lt;/p&gt;" style="text;html=1;align=center;verticalAlign=middle;whiteSpace=wrap;rounded=0;" vertex="1" parent="1">
          <mxGeometry x="2360" y="1430" width="450" height="30" as="geometry" />
        </mxCell>
        <mxCell id="1oKnx7t8Xmumv9tewnxi-201" value="Bắt đầu" style="ellipse;whiteSpace=wrap;html=1;" vertex="1" parent="1">
          <mxGeometry x="2540" y="1484" width="90" height="70" as="geometry" />
        </mxCell>
        <mxCell id="1oKnx7t8Xmumv9tewnxi-202" value="Đặt nền màu đen" style="rounded=0;whiteSpace=wrap;html=1;" vertex="1" parent="1">
          <mxGeometry x="2525" y="1580" width="120" height="60" as="geometry" />
        </mxCell>
        <mxCell id="1oKnx7t8Xmumv9tewnxi-203" value="Đặt chữ trắng" style="rounded=0;whiteSpace=wrap;html=1;" vertex="1" parent="1">
          <mxGeometry x="2525" y="1670" width="120" height="60" as="geometry" />
        </mxCell>
        <mxCell id="1oKnx7t8Xmumv9tewnxi-204" value="Đặt kích thước chữ" style="rounded=0;whiteSpace=wrap;html=1;" vertex="1" parent="1">
          <mxGeometry x="2525" y="1760" width="120" height="60" as="geometry" />
        </mxCell>
        <mxCell id="1oKnx7t8Xmumv9tewnxi-205" value="Đặt hướng xoay màn hình" style="rounded=0;whiteSpace=wrap;html=1;" vertex="1" parent="1">
          <mxGeometry x="2525" y="1850" width="120" height="60" as="geometry" />
        </mxCell>
        <mxCell id="1oKnx7t8Xmumv9tewnxi-206" value="Xóa toàn bộ dữ liệu hiện có trên màn hình" style="rounded=0;whiteSpace=wrap;html=1;" vertex="1" parent="1">
          <mxGeometry x="2525" y="1940" width="120" height="60" as="geometry" />
        </mxCell>
        <mxCell id="1oKnx7t8Xmumv9tewnxi-207" value="" style="endArrow=classic;html=1;rounded=0;exitX=0.5;exitY=1;exitDx=0;exitDy=0;entryX=0.5;entryY=0;entryDx=0;entryDy=0;" edge="1" parent="1" source="1oKnx7t8Xmumv9tewnxi-201" target="1oKnx7t8Xmumv9tewnxi-202">
          <mxGeometry width="50" height="50" relative="1" as="geometry">
            <mxPoint x="2760" y="1770" as="sourcePoint" />
            <mxPoint x="2810" y="1720" as="targetPoint" />
          </mxGeometry>
        </mxCell>
        <mxCell id="1oKnx7t8Xmumv9tewnxi-208" value="" style="endArrow=classic;html=1;rounded=0;exitX=0.5;exitY=1;exitDx=0;exitDy=0;entryX=0.5;entryY=0;entryDx=0;entryDy=0;" edge="1" parent="1" source="1oKnx7t8Xmumv9tewnxi-202" target="1oKnx7t8Xmumv9tewnxi-203">
          <mxGeometry width="50" height="50" relative="1" as="geometry">
            <mxPoint x="2760" y="1770" as="sourcePoint" />
            <mxPoint x="2810" y="1720" as="targetPoint" />
          </mxGeometry>
        </mxCell>
        <mxCell id="1oKnx7t8Xmumv9tewnxi-209" value="" style="endArrow=classic;html=1;rounded=0;exitX=0.5;exitY=1;exitDx=0;exitDy=0;entryX=0.5;entryY=0;entryDx=0;entryDy=0;" edge="1" parent="1" source="1oKnx7t8Xmumv9tewnxi-203" target="1oKnx7t8Xmumv9tewnxi-204">
          <mxGeometry width="50" height="50" relative="1" as="geometry">
            <mxPoint x="2760" y="1770" as="sourcePoint" />
            <mxPoint x="2810" y="1720" as="targetPoint" />
          </mxGeometry>
        </mxCell>
        <mxCell id="1oKnx7t8Xmumv9tewnxi-210" value="" style="endArrow=classic;html=1;rounded=0;exitX=0.5;exitY=1;exitDx=0;exitDy=0;entryX=0.5;entryY=0;entryDx=0;entryDy=0;" edge="1" parent="1" source="1oKnx7t8Xmumv9tewnxi-204" target="1oKnx7t8Xmumv9tewnxi-205">
          <mxGeometry width="50" height="50" relative="1" as="geometry">
            <mxPoint x="2760" y="1770" as="sourcePoint" />
            <mxPoint x="2810" y="1720" as="targetPoint" />
          </mxGeometry>
        </mxCell>
        <mxCell id="1oKnx7t8Xmumv9tewnxi-211" value="" style="endArrow=classic;html=1;rounded=0;exitX=0.5;exitY=1;exitDx=0;exitDy=0;entryX=0.5;entryY=0;entryDx=0;entryDy=0;" edge="1" parent="1" source="1oKnx7t8Xmumv9tewnxi-205" target="1oKnx7t8Xmumv9tewnxi-206">
          <mxGeometry width="50" height="50" relative="1" as="geometry">
            <mxPoint x="2760" y="1770" as="sourcePoint" />
            <mxPoint x="2810" y="1720" as="targetPoint" />
          </mxGeometry>
        </mxCell>
        <mxCell id="1oKnx7t8Xmumv9tewnxi-212" value="Kết thúc" style="ellipse;whiteSpace=wrap;html=1;" vertex="1" parent="1">
          <mxGeometry x="2540" y="2030" width="90" height="70" as="geometry" />
        </mxCell>
        <mxCell id="1oKnx7t8Xmumv9tewnxi-213" value="" style="endArrow=classic;html=1;rounded=0;exitX=0.5;exitY=1;exitDx=0;exitDy=0;entryX=0.5;entryY=0;entryDx=0;entryDy=0;" edge="1" parent="1" source="1oKnx7t8Xmumv9tewnxi-206" target="1oKnx7t8Xmumv9tewnxi-212">
          <mxGeometry width="50" height="50" relative="1" as="geometry">
            <mxPoint x="2760" y="1770" as="sourcePoint" />
            <mxPoint x="2810" y="1720" as="targetPoint" />
          </mxGeometry>
        </mxCell>
        <mxCell id="1oKnx7t8Xmumv9tewnxi-214" value="&lt;p style=&quot;line-height: 1.15px; margin-bottom: 0in; background: transparent; font-size: medium;&quot; align=&quot;justify&quot;&gt;&lt;font face=&quot;Time new roman&quot;&gt;&lt;font style=&quot;font-size: 14pt;&quot;&gt;3.5.4.3. Lưu đồ giải thuật cho hàm khởi tạo cảm biến DHT&lt;/font&gt;&lt;/font&gt;&lt;/p&gt;" style="text;html=1;align=center;verticalAlign=middle;whiteSpace=wrap;rounded=0;" vertex="1" parent="1">
          <mxGeometry x="2350" y="2130" width="450" height="30" as="geometry" />
        </mxCell>
        <mxCell id="1oKnx7t8Xmumv9tewnxi-215" value="Bắt đầu" style="ellipse;whiteSpace=wrap;html=1;" vertex="1" parent="1">
          <mxGeometry x="2540" y="2180" width="90" height="70" as="geometry" />
        </mxCell>
        <mxCell id="1oKnx7t8Xmumv9tewnxi-216" value="dht.begin()" style="rounded=0;whiteSpace=wrap;html=1;" vertex="1" parent="1">
          <mxGeometry x="2525" y="2280" width="120" height="60" as="geometry" />
        </mxCell>
        <mxCell id="1oKnx7t8Xmumv9tewnxi-217" value="Kết thúc" style="ellipse;whiteSpace=wrap;html=1;" vertex="1" parent="1">
          <mxGeometry x="2540" y="2375" width="90" height="70" as="geometry" />
        </mxCell>
        <mxCell id="1oKnx7t8Xmumv9tewnxi-218" value="" style="endArrow=classic;html=1;rounded=0;exitX=0.5;exitY=1;exitDx=0;exitDy=0;entryX=0.5;entryY=0;entryDx=0;entryDy=0;" edge="1" parent="1" source="1oKnx7t8Xmumv9tewnxi-215" target="1oKnx7t8Xmumv9tewnxi-216">
          <mxGeometry width="50" height="50" relative="1" as="geometry">
            <mxPoint x="2760" y="2070" as="sourcePoint" />
            <mxPoint x="2810" y="2020" as="targetPoint" />
          </mxGeometry>
        </mxCell>
        <mxCell id="1oKnx7t8Xmumv9tewnxi-219" value="" style="endArrow=classic;html=1;rounded=0;exitX=0.5;exitY=1;exitDx=0;exitDy=0;entryX=0.5;entryY=0;entryDx=0;entryDy=0;" edge="1" parent="1" source="1oKnx7t8Xmumv9tewnxi-216" target="1oKnx7t8Xmumv9tewnxi-217">
          <mxGeometry width="50" height="50" relative="1" as="geometry">
            <mxPoint x="2760" y="2070" as="sourcePoint" />
            <mxPoint x="2810" y="2020" as="targetPoint" />
          </mxGeometry>
        </mxCell>
        <mxCell id="1oKnx7t8Xmumv9tewnxi-220" value="&lt;p style=&quot;line-height: 1.15px; margin-bottom: 0in; background: transparent; font-size: medium;&quot; align=&quot;justify&quot;&gt;&lt;font face=&quot;Time new roman&quot;&gt;&lt;font style=&quot;font-size: 14pt;&quot;&gt;3.5.4.4. Lưu đồ giải thuật vòng lặp chính&lt;/font&gt;&lt;/font&gt;&lt;/p&gt;" style="text;html=1;align=center;verticalAlign=middle;whiteSpace=wrap;rounded=0;" vertex="1" parent="1">
          <mxGeometry x="2290" y="2490" width="450" height="30" as="geometry" />
        </mxCell>
        <mxCell id="1oKnx7t8Xmumv9tewnxi-221" value="Bắt đầu" style="ellipse;whiteSpace=wrap;html=1;" vertex="1" parent="1">
          <mxGeometry x="2540" y="2550" width="90" height="70" as="geometry" />
        </mxCell>
        <mxCell id="1oKnx7t8Xmumv9tewnxi-222" value="Mất kết nối MQTT ?" style="rhombus;whiteSpace=wrap;html=1;" vertex="1" parent="1">
          <mxGeometry x="2500" y="2650" width="170" height="70" as="geometry" />
        </mxCell>
        <mxCell id="1oKnx7t8Xmumv9tewnxi-223" value="" style="endArrow=classic;html=1;rounded=0;exitX=1;exitY=0.5;exitDx=0;exitDy=0;entryX=0;entryY=0.5;entryDx=0;entryDy=0;" edge="1" parent="1" source="1oKnx7t8Xmumv9tewnxi-222" target="1oKnx7t8Xmumv9tewnxi-229">
          <mxGeometry width="50" height="50" relative="1" as="geometry">
            <mxPoint x="2760" y="2670" as="sourcePoint" />
            <mxPoint x="2720" y="2685" as="targetPoint" />
          </mxGeometry>
        </mxCell>
        <mxCell id="1oKnx7t8Xmumv9tewnxi-224" value="Đúng" style="text;html=1;align=center;verticalAlign=middle;whiteSpace=wrap;rounded=0;" vertex="1" parent="1">
          <mxGeometry x="2700" y="2660" width="60" height="30" as="geometry" />
        </mxCell>
        <mxCell id="1oKnx7t8Xmumv9tewnxi-225" value="Sai" style="text;html=1;align=center;verticalAlign=middle;whiteSpace=wrap;rounded=0;" vertex="1" parent="1">
          <mxGeometry x="2595" y="2710" width="60" height="30" as="geometry" />
        </mxCell>
        <mxCell id="1oKnx7t8Xmumv9tewnxi-226" value="" style="endArrow=classic;html=1;rounded=0;exitX=0.5;exitY=1;exitDx=0;exitDy=0;" edge="1" parent="1" source="1oKnx7t8Xmumv9tewnxi-222">
          <mxGeometry width="50" height="50" relative="1" as="geometry">
            <mxPoint x="2760" y="2670" as="sourcePoint" />
            <mxPoint x="2585" y="2780" as="targetPoint" />
          </mxGeometry>
        </mxCell>
        <mxCell id="1oKnx7t8Xmumv9tewnxi-229" value="Kết nối lại MQTT" style="shape=process;whiteSpace=wrap;html=1;backgroundOutline=1;" vertex="1" parent="1">
          <mxGeometry x="2810" y="2655" width="120" height="60" as="geometry" />
        </mxCell>
        <mxCell id="1oKnx7t8Xmumv9tewnxi-230" value="" style="endArrow=classic;html=1;rounded=0;exitX=0.5;exitY=1;exitDx=0;exitDy=0;" edge="1" parent="1" source="1oKnx7t8Xmumv9tewnxi-229">
          <mxGeometry width="50" height="50" relative="1" as="geometry">
            <mxPoint x="2760" y="2670" as="sourcePoint" />
            <mxPoint x="2590" y="2760" as="targetPoint" />
            <Array as="points">
              <mxPoint x="2870" y="2760" />
            </Array>
          </mxGeometry>
        </mxCell>
        <mxCell id="1oKnx7t8Xmumv9tewnxi-232" value="Bắt đầu" style="ellipse;whiteSpace=wrap;html=1;" vertex="1" parent="1">
          <mxGeometry x="3070" y="2725" width="90" height="70" as="geometry" />
        </mxCell>
        <mxCell id="1oKnx7t8Xmumv9tewnxi-233" value="" style="endArrow=classic;html=1;rounded=0;exitX=0.5;exitY=1;exitDx=0;exitDy=0;entryX=0.5;entryY=0;entryDx=0;entryDy=0;" edge="1" parent="1" source="1oKnx7t8Xmumv9tewnxi-221" target="1oKnx7t8Xmumv9tewnxi-222">
          <mxGeometry width="50" height="50" relative="1" as="geometry">
            <mxPoint x="2760" y="2550" as="sourcePoint" />
            <mxPoint x="2810" y="2500" as="targetPoint" />
          </mxGeometry>
        </mxCell>
        <mxCell id="1oKnx7t8Xmumv9tewnxi-234" value="gọi hàm connect" style="rounded=0;whiteSpace=wrap;html=1;" vertex="1" parent="1">
          <mxGeometry x="3055" y="2825" width="120" height="60" as="geometry" />
        </mxCell>
        <mxCell id="1oKnx7t8Xmumv9tewnxi-235" value="subcribe topic" style="rounded=0;whiteSpace=wrap;html=1;" vertex="1" parent="1">
          <mxGeometry x="3055" y="3035" width="120" height="60" as="geometry" />
        </mxCell>
        <mxCell id="1oKnx7t8Xmumv9tewnxi-236" value="Thành công ?" style="rhombus;whiteSpace=wrap;html=1;" vertex="1" parent="1">
          <mxGeometry x="3030" y="2925" width="170" height="70" as="geometry" />
        </mxCell>
        <mxCell id="1oKnx7t8Xmumv9tewnxi-237" value="" style="endArrow=classic;html=1;rounded=0;exitX=1;exitY=0.5;exitDx=0;exitDy=0;" edge="1" parent="1" source="1oKnx7t8Xmumv9tewnxi-236">
          <mxGeometry width="50" height="50" relative="1" as="geometry">
            <mxPoint x="2790" y="2965" as="sourcePoint" />
            <mxPoint x="3260" y="2960" as="targetPoint" />
          </mxGeometry>
        </mxCell>
        <mxCell id="1oKnx7t8Xmumv9tewnxi-238" value="Đợi 5 giây" style="rounded=0;whiteSpace=wrap;html=1;" vertex="1" parent="1">
          <mxGeometry x="3260" y="2930" width="120" height="60" as="geometry" />
        </mxCell>
        <mxCell id="1oKnx7t8Xmumv9tewnxi-239" value="" style="endArrow=classic;html=1;rounded=0;exitX=0.5;exitY=1;exitDx=0;exitDy=0;entryX=0.5;entryY=0;entryDx=0;entryDy=0;" edge="1" parent="1" source="1oKnx7t8Xmumv9tewnxi-232" target="1oKnx7t8Xmumv9tewnxi-234">
          <mxGeometry width="50" height="50" relative="1" as="geometry">
            <mxPoint x="2790" y="2965" as="sourcePoint" />
            <mxPoint x="2840" y="2915" as="targetPoint" />
          </mxGeometry>
        </mxCell>
        <mxCell id="1oKnx7t8Xmumv9tewnxi-240" value="" style="endArrow=classic;html=1;rounded=0;exitX=0.5;exitY=1;exitDx=0;exitDy=0;entryX=0.5;entryY=0;entryDx=0;entryDy=0;" edge="1" parent="1" source="1oKnx7t8Xmumv9tewnxi-234" target="1oKnx7t8Xmumv9tewnxi-236">
          <mxGeometry width="50" height="50" relative="1" as="geometry">
            <mxPoint x="2790" y="2965" as="sourcePoint" />
            <mxPoint x="2840" y="2915" as="targetPoint" />
          </mxGeometry>
        </mxCell>
        <mxCell id="1oKnx7t8Xmumv9tewnxi-241" value="" style="endArrow=classic;html=1;rounded=0;exitX=0.5;exitY=1;exitDx=0;exitDy=0;entryX=0.5;entryY=0;entryDx=0;entryDy=0;" edge="1" parent="1" source="1oKnx7t8Xmumv9tewnxi-236" target="1oKnx7t8Xmumv9tewnxi-235">
          <mxGeometry width="50" height="50" relative="1" as="geometry">
            <mxPoint x="2790" y="2965" as="sourcePoint" />
            <mxPoint x="2840" y="2915" as="targetPoint" />
          </mxGeometry>
        </mxCell>
        <mxCell id="1oKnx7t8Xmumv9tewnxi-242" value="" style="endArrow=classic;html=1;rounded=0;exitX=0.5;exitY=0;exitDx=0;exitDy=0;entryX=1;entryY=0.5;entryDx=0;entryDy=0;" edge="1" parent="1" source="1oKnx7t8Xmumv9tewnxi-238" target="1oKnx7t8Xmumv9tewnxi-234">
          <mxGeometry width="50" height="50" relative="1" as="geometry">
            <mxPoint x="2790" y="2965" as="sourcePoint" />
            <mxPoint x="2840" y="2915" as="targetPoint" />
            <Array as="points">
              <mxPoint x="3320" y="2855" />
            </Array>
          </mxGeometry>
        </mxCell>
        <mxCell id="1oKnx7t8Xmumv9tewnxi-244" value="Kết thúc" style="ellipse;whiteSpace=wrap;html=1;" vertex="1" parent="1">
          <mxGeometry x="3070" y="3125" width="90" height="70" as="geometry" />
        </mxCell>
        <mxCell id="1oKnx7t8Xmumv9tewnxi-245" value="" style="endArrow=classic;html=1;rounded=0;exitX=0.5;exitY=1;exitDx=0;exitDy=0;entryX=0.5;entryY=0;entryDx=0;entryDy=0;" edge="1" parent="1" source="1oKnx7t8Xmumv9tewnxi-235" target="1oKnx7t8Xmumv9tewnxi-244">
          <mxGeometry width="50" height="50" relative="1" as="geometry">
            <mxPoint x="2790" y="2965" as="sourcePoint" />
            <mxPoint x="2840" y="2915" as="targetPoint" />
          </mxGeometry>
        </mxCell>
        <mxCell id="1oKnx7t8Xmumv9tewnxi-246" value="&lt;p style=&quot;line-height: 1.15px; margin-bottom: 0in; background: transparent; font-size: medium;&quot; align=&quot;justify&quot;&gt;&lt;font face=&quot;Time new roman&quot;&gt;&lt;font style=&quot;font-size: 14pt;&quot;&gt;Hàm kết nối lại MQTT&lt;/font&gt;&lt;/font&gt;&lt;/p&gt;" style="text;html=1;align=center;verticalAlign=middle;whiteSpace=wrap;rounded=0;" vertex="1" parent="1">
          <mxGeometry x="2900" y="2680" width="450" height="30" as="geometry" />
        </mxCell>
        <mxCell id="1oKnx7t8Xmumv9tewnxi-248" value="Thời gian hiện tại - Thời gian trước đó &amp;gt; 2000ms ?" style="rhombus;whiteSpace=wrap;html=1;" vertex="1" parent="1">
          <mxGeometry x="2415" y="2780" width="340" height="80" as="geometry" />
        </mxCell>
        <mxCell id="1oKnx7t8Xmumv9tewnxi-249" value="" style="endArrow=classic;html=1;rounded=0;exitX=0.5;exitY=1;exitDx=0;exitDy=0;entryX=0.5;entryY=0;entryDx=0;entryDy=0;" edge="1" parent="1" source="1oKnx7t8Xmumv9tewnxi-248" target="1oKnx7t8Xmumv9tewnxi-251">
          <mxGeometry width="50" height="50" relative="1" as="geometry">
            <mxPoint x="2760" y="2790" as="sourcePoint" />
            <mxPoint x="2580" y="2900" as="targetPoint" />
          </mxGeometry>
        </mxCell>
        <mxCell id="1oKnx7t8Xmumv9tewnxi-251" value="Ngưỡng khí Gas &amp;gt; 2000" style="rhombus;whiteSpace=wrap;html=1;" vertex="1" parent="1">
          <mxGeometry x="2415" y="2920" width="340" height="80" as="geometry" />
        </mxCell>
        <mxCell id="1oKnx7t8Xmumv9tewnxi-252" value="Sai" style="text;html=1;align=center;verticalAlign=middle;whiteSpace=wrap;rounded=0;" vertex="1" parent="1">
          <mxGeometry x="2585" y="2875" width="60" height="30" as="geometry" />
        </mxCell>
        <mxCell id="1oKnx7t8Xmumv9tewnxi-253" value="- Bật đèn cảnh báo&lt;div&gt;- Hiển thị cảnh báo lên TFT&lt;/div&gt;" style="rounded=0;whiteSpace=wrap;html=1;align=left;" vertex="1" parent="1">
          <mxGeometry x="2810" y="2930" width="120" height="60" as="geometry" />
        </mxCell>
        <mxCell id="1oKnx7t8Xmumv9tewnxi-254" value="" style="endArrow=classic;html=1;rounded=0;exitX=1;exitY=0.5;exitDx=0;exitDy=0;entryX=0;entryY=0.5;entryDx=0;entryDy=0;" edge="1" parent="1" source="1oKnx7t8Xmumv9tewnxi-251" target="1oKnx7t8Xmumv9tewnxi-253">
          <mxGeometry width="50" height="50" relative="1" as="geometry">
            <mxPoint x="2760" y="2790" as="sourcePoint" />
            <mxPoint x="2810" y="2740" as="targetPoint" />
          </mxGeometry>
        </mxCell>
        <mxCell id="1oKnx7t8Xmumv9tewnxi-255" value="- Cập nhật nhiệt độ, độ ẩm mới&lt;div&gt;- Gửi lên MQTT&lt;/div&gt;&lt;div&gt;- Cập nhật TFT&lt;/div&gt;" style="rounded=0;whiteSpace=wrap;html=1;align=left;" vertex="1" parent="1">
          <mxGeometry x="2810" y="2790" width="120" height="60" as="geometry" />
        </mxCell>
        <mxCell id="1oKnx7t8Xmumv9tewnxi-256" value="" style="endArrow=classic;html=1;rounded=0;exitX=1;exitY=0.5;exitDx=0;exitDy=0;entryX=0;entryY=0.5;entryDx=0;entryDy=0;" edge="1" parent="1" source="1oKnx7t8Xmumv9tewnxi-248" target="1oKnx7t8Xmumv9tewnxi-255">
          <mxGeometry width="50" height="50" relative="1" as="geometry">
            <mxPoint x="2800" y="2790" as="sourcePoint" />
            <mxPoint x="2850" y="2740" as="targetPoint" />
          </mxGeometry>
        </mxCell>
        <mxCell id="1oKnx7t8Xmumv9tewnxi-258" value="" style="endArrow=classic;html=1;rounded=0;exitX=0.5;exitY=1;exitDx=0;exitDy=0;entryX=0;entryY=0;entryDx=0;entryDy=0;" edge="1" parent="1" source="1oKnx7t8Xmumv9tewnxi-255" target="1oKnx7t8Xmumv9tewnxi-252">
          <mxGeometry width="50" height="50" relative="1" as="geometry">
            <mxPoint x="2800" y="2790" as="sourcePoint" />
            <mxPoint x="2850" y="2740" as="targetPoint" />
            <Array as="points">
              <mxPoint x="2870" y="2875" />
            </Array>
          </mxGeometry>
        </mxCell>
        <mxCell id="1oKnx7t8Xmumv9tewnxi-259" value="" style="endArrow=classic;html=1;rounded=0;exitX=0.5;exitY=1;exitDx=0;exitDy=0;" edge="1" parent="1" source="1oKnx7t8Xmumv9tewnxi-253">
          <mxGeometry width="50" height="50" relative="1" as="geometry">
            <mxPoint x="2800" y="2790" as="sourcePoint" />
            <mxPoint x="2590" y="3020" as="targetPoint" />
            <Array as="points">
              <mxPoint x="2870" y="3020" />
            </Array>
          </mxGeometry>
        </mxCell>
        <mxCell id="1oKnx7t8Xmumv9tewnxi-260" value="" style="endArrow=classic;html=1;rounded=0;exitX=0.5;exitY=1;exitDx=0;exitDy=0;" edge="1" parent="1" source="1oKnx7t8Xmumv9tewnxi-251">
          <mxGeometry width="50" height="50" relative="1" as="geometry">
            <mxPoint x="2800" y="2790" as="sourcePoint" />
            <mxPoint x="2585" y="3040" as="targetPoint" />
          </mxGeometry>
        </mxCell>
        <mxCell id="1oKnx7t8Xmumv9tewnxi-262" value="Kết thúc" style="ellipse;whiteSpace=wrap;html=1;" vertex="1" parent="1">
          <mxGeometry x="2540" y="3040" width="90" height="70" as="geometry" />
        </mxCell>
      </root>
    </mxGraphModel>
  </diagram>
</mxfile>
